<?xml version="1.0" encoding="UTF-8"?>
<svg version="1.1" xmlns="http://www.w3.org/2000/svg" viewBox="0 0 225 255">
<path d="M0 0 C9.44111568 -0.06985011 18.88214088 -0.1229876 28.32345963 -0.15543652 C32.70857188 -0.17101903 37.09350591 -0.19211984 41.47851562 -0.22631836 C45.71902949 -0.25917883 49.95937311 -0.2769086 54.20000458 -0.28463173 C55.80894394 -0.29012777 57.41787516 -0.3008586 59.02674103 -0.31719017 C73.70337945 -0.46009766 85.97725459 0.7492542 97.19140625 11.00390625 C104.40123048 18.42617465 107.15624587 25.9588606 107.5 36.25 C106.98076015 53.28106703 100.68396416 67.27835981 88.86328125 79.33203125 C84.89630489 83.02840895 80.88046204 85.67227566 76 88 C74.79923828 88.58007812 74.79923828 88.58007812 73.57421875 89.171875 C61.74345146 94.37967687 49.41218246 94.27092209 36.75 94.125 C35.21484965 94.11494089 33.67969285 94.10582027 32.14453125 94.09765625 C28.42955073 94.07589619 24.71481839 94.04153134 21 94 C20.80422363 94.98673706 20.80422363 94.98673706 20.60449219 95.9934082 C18.35565995 107.31535299 16.10246433 118.63655485 13.75 129.9375 C13.58725586 130.72874268 13.42451172 131.51998535 13.25683594 132.33520508 C12.1175698 137.76486039 12.1175698 137.76486039 11 140 C-2.53 140 -16.06 140 -30 140 C-26.73069098 123.3810125 -23.25873098 106.82624653 -19.58001709 90.29354858 C-18.14903214 83.86106131 -16.72683439 77.42663324 -15.3046875 70.9921875 C-15.0223526 69.71528549 -14.7400177 68.43838348 -14.4491272 67.12278748 C-11.87979298 55.48719806 -9.3628571 43.84075713 -6.875 32.1875 C-6.6951355 31.34502716 -6.515271 30.50255432 -6.32995605 29.634552 C-5.53869813 25.92618436 -4.74874533 22.21754319 -3.96044922 18.50854492 C-2.64783072 12.33742134 -1.32289784 6.16892632 0 0 Z M35 29 C34.01558404 32.98214854 33.03723312 36.96573576 32.06420898 40.95068359 C31.73314555 42.30296897 31.40049646 43.65486726 31.06616211 45.00634766 C29.34438123 51.97068108 27.64844116 58.83974836 27 66 C30.96 66 34.92 66 39 66 C41.65027299 56.69831373 43.7041332 47.6110121 45 38 C52.26 38 59.52 38 67 38 C64.8287546 32.5718865 64.32162176 31.92894079 59.43359375 29.73242188 C54.83863416 28.34950868 50.25403327 28.58778889 45.5 28.75 C44.48679687 28.76804687 43.47359375 28.78609375 42.4296875 28.8046875 C39.95211393 28.85143417 37.47657684 28.91693628 35 29 Z M51 46 C49.49073103 50.52780692 48.33885533 54.73096976 47.375 59.375 C47.11460938 60.62023437 46.85421875 61.86546875 46.5859375 63.1484375 C46.29589844 64.55996094 46.29589844 64.55996094 46 66 C53.43160831 65.21344292 58.8221592 62.85557936 63.6484375 57 C66.16455675 53.16037293 67.06922642 50.65386789 68 46 C62.39 46 56.78 46 51 46 Z " fill="#FEFEFE" transform="translate(66,34)"/>
<path d="M0 0 C0.66 0 1.32 0 2 0 C9.25234049 11.70893141 10.57855711 22.40833195 7.4375 35.8125 C3.63789796 50.67883623 -4.44405765 62.93732952 -17.296875 71.43359375 C-31.41786384 79.6164211 -44.77142416 80.28978516 -60.625 80.125 C-62.31379677 80.11494957 -64.00259934 80.10582737 -65.69140625 80.09765625 C-69.79441594 80.07580739 -73.89714282 80.04139154 -78 80 C-78.08121094 81.26585937 -78.16242188 82.53171875 -78.24609375 83.8359375 C-79.08567088 92.23170877 -81.18667949 100.41370762 -83.0625 108.625 C-84.361875 114.35875 -85.66125 120.0925 -87 126 C-100.53 126 -114.06 126 -128 126 C-127 118 -127 118 -126 117 C-123.55391002 116.84019563 -121.13268942 116.74070553 -118.68359375 116.68359375 C-117.95253922 116.66281265 -117.22148468 116.64203156 -116.46827698 116.62062073 C-114.12478344 116.55504976 -111.78117461 116.49620568 -109.4375 116.4375 C-107.85220145 116.39432192 -106.26691471 116.35070787 -104.68164062 116.30664062 C-100.78787963 116.1993608 -96.89400228 116.0981151 -93 116 C-92.7326001 114.74340576 -92.4652002 113.48681152 -92.18969727 112.19213867 C-91.19810036 107.53454229 -90.204251 102.87742897 -89.2097168 98.22045898 C-88.77941313 96.20398881 -88.34972222 94.18738778 -87.9206543 92.1706543 C-87.30417971 89.27358007 -86.68551036 86.37698203 -86.06640625 83.48046875 C-85.87470352 82.57725388 -85.68300079 81.674039 -85.48548889 80.74345398 C-85.21532204 79.4824865 -85.21532204 79.4824865 -84.93969727 78.19604492 C-84.78203384 77.45658127 -84.62437042 76.71711761 -84.46192932 75.95524597 C-84 74 -84 74 -83 71 C-81.88141602 70.98541748 -80.76283203 70.97083496 -79.61035156 70.95581055 C-75.40545869 70.89723331 -71.2010686 70.82001189 -66.99658203 70.73754883 C-65.18709558 70.70457596 -63.3775131 70.67646089 -61.56787109 70.65356445 C-43.34695094 70.41686372 -27.39886608 68.38079659 -13.5625 55.1875 C-1.95423835 42.71379259 2.25690669 28.22898365 2.16796875 11.4375 C1.96745528 7.33396851 1.24806887 3.90021522 0 0 Z " fill="#FCFCFC" transform="translate(180,65)"/>
</svg>
