<?xml version="1.0" encoding="UTF-8"?>
<svg version="1.1" xmlns="http://www.w3.org/2000/svg" viewBox="0 0 500 500">
<path d="M0 0 C0.73822998 0.00248749 1.47645996 0.00497498 2.23706055 0.00753784 C51.03675963 0.26025338 98.18319802 18.465796 134.375 51.3125 C135.47070971 52.2871833 136.56705667 53.26115072 137.6640625 54.234375 C142.60162184 58.64741786 147.39709361 63.11156741 151.6328125 68.21875 C152.87665731 69.71359489 154.16931447 71.16836651 155.4921875 72.59375 C176.44624417 95.95237056 190.03221558 127.1257597 197.125 157.4375 C197.32391846 158.28304443 197.52283691 159.12858887 197.7277832 159.99975586 C200.73805739 173.59700035 201.7611897 187.11205343 201.6875 201 C201.68534485 201.73917664 201.6831897 202.47835327 201.68096924 203.2399292 C201.62405905 215.47101333 200.91792449 227.32442742 198.375 239.3125 C198.17632324 240.26237793 197.97764648 241.21225586 197.77294922 242.19091797 C190.30044773 276.85548855 174.22921993 309.02897384 150.375 335.3125 C149.4003167 336.40820971 148.42634928 337.50455667 147.453125 338.6015625 C143.04008214 343.53912184 138.57593259 348.33459361 133.46875 352.5703125 C131.97390511 353.81415731 130.51913349 355.10681447 129.09375 356.4296875 C105.73512944 377.38374417 74.5617403 390.96971558 44.25 398.0625 C43.40445557 398.26141846 42.55891113 398.46033691 41.68774414 398.6652832 C28.09049965 401.67555739 14.57544657 402.6986897 0.6875 402.625 C-0.05167664 402.62284485 -0.79085327 402.6206897 -1.5524292 402.61846924 C-13.78351333 402.56155905 -25.63692742 401.85542449 -37.625 399.3125 C-38.57487793 399.11382324 -39.52475586 398.91514648 -40.50341797 398.71044922 C-74.2302043 391.44010209 -106.3798168 375.99661716 -132.03466797 352.75146484 C-133.57490432 351.35782759 -135.13043229 349.9836096 -136.69140625 348.61328125 C-141.35079973 344.47371126 -145.79421805 340.3035349 -149.78125 335.5078125 C-151.13121573 333.90043805 -152.53550088 332.33826406 -153.96875 330.8046875 C-175.33745899 307.23625847 -189.18142459 275.9299809 -196.375 245.1875 C-196.57391846 244.34195557 -196.77283691 243.49641113 -196.9777832 242.62524414 C-199.98312972 229.05025764 -201.01301087 215.55310937 -200.9375 201.6875 C-200.93501251 200.94927002 -200.93252502 200.21104004 -200.92996216 199.45043945 C-200.68288882 151.74025716 -183.26333625 104.44013762 -151.06396484 68.90283203 C-149.67032759 67.36259568 -148.2961096 65.80706771 -146.92578125 64.24609375 C-142.78621126 59.58670027 -138.6160349 55.14328195 -133.8203125 51.15625 C-132.21293805 49.80628427 -130.65076406 48.40199912 -129.1171875 46.96875 C-105.54875847 25.60004101 -74.2424809 11.75607541 -43.5 4.5625 C-42.65445557 4.36358154 -41.80891113 4.16466309 -40.93774414 3.9597168 C-27.36275764 0.95437028 -13.86560937 -0.07551087 0 0 Z M-112.5 126.8125 C-113.43875977 127.00175049 -114.37751953 127.19100098 -115.34472656 127.38598633 C-123.02147234 129.07580486 -128.01864822 131.65888077 -132.625 138.3125 C-134.59639859 144.22669578 -134.46280847 150.96663629 -132.375 156.8125 C-129.80755612 160.48027697 -127.92980486 162.87756505 -123.625 164.3125 C-116.83836463 164.81785476 -110.50028925 163.9291939 -103.875 162.5625 C-94.62205586 160.76849567 -85.34144892 159.36330118 -76 158.125 C-74.75637695 157.95838867 -73.51275391 157.79177734 -72.23144531 157.62011719 C-57.78907611 155.73599348 -43.61259275 155.07319513 -29.0625 155.0625 C-28.10958069 155.06149292 -27.15666138 155.06048584 -26.17486572 155.05944824 C-10.4455844 155.07065496 4.80232868 155.98124674 20.375 158.3125 C22.46727927 158.59500184 24.55972942 158.8762409 26.65234375 159.15625 C52.02246046 162.71255106 76.47106442 169.72145121 99.62109375 180.7109375 C100.24719543 181.0070694 100.87329712 181.30320129 101.51837158 181.60830688 C104.62024021 183.07913127 107.71005798 184.56918334 110.78466797 186.09619141 C120.40522461 190.79024678 120.40522461 190.79024678 130.73046875 189.5 C136.83574031 185.54263848 140.90711362 180.67125005 142.5 173.4375 C142.79261941 167.91024456 140.84468601 163.53822654 137.375 159.3125 C133.00407898 156.00706665 128.3022643 153.64828254 123.375 151.3125 C122.72934082 150.99603516 122.08368164 150.67957031 121.41845703 150.35351562 C84.45098367 132.34910528 43.21051586 122.80340891 2.375 119.3125 C1.20195312 119.20164062 0.02890625 119.09078125 -1.1796875 118.9765625 C-38.31089137 116.0220366 -76.10423593 119.24909685 -112.5 126.8125 Z M-118.625 201.3125 C-120.46955761 205.00161523 -119.97562965 209.27707145 -119.625 213.3125 C-117.6737667 218.03653852 -114.17557782 221.03721109 -109.625 223.3125 C-104.54281007 223.63517873 -100.4675018 223.40161975 -95.59375 221.9296875 C-89.47562851 220.19792107 -83.34208195 219.14650763 -77.0625 218.1875 C-75.47405273 217.93419922 -75.47405273 217.93419922 -73.85351562 217.67578125 C-70.78052332 217.19485701 -67.70528113 216.74409558 -64.625 216.3125 C-63.48744263 216.14911133 -63.48744263 216.14911133 -62.3269043 215.98242188 C-53.13529525 214.86107582 -43.80718253 215.06847241 -34.5625 215.0625 C-33.6253717 215.06182526 -32.68824341 215.06115051 -31.72271729 215.06045532 C-16.81102415 215.07748689 -2.34123336 215.7126577 12.375 218.3125 C13.35452637 218.47878906 14.33405273 218.64507812 15.34326172 218.81640625 C40.22395481 223.14976354 64.75287004 231.03033445 86.375 244.3125 C92.19130674 247.43471852 96.74472053 249.16801993 103.375 248.3125 C108.58029132 246.37154391 110.71341683 244.33708822 113.4375 239.5 C114.9491113 236.06999827 115.38789182 234.49943141 115.125 230.6875 C110.48908024 221.74679761 103.71475758 217.22348622 94.9375 212.6875 C93.86201904 212.12192383 92.78653809 211.55634766 91.6784668 210.97363281 C84.21785646 207.11440713 76.80139555 203.65742298 68.79589844 201.09179688 C66.98450559 200.50870228 65.17871459 199.90815475 63.37597656 199.29882812 C44.58395619 192.95232783 25.9412318 188.44480097 6.375 185.3125 C5.47620117 185.16699707 4.57740234 185.02149414 3.65136719 184.87158203 C-29.02175047 179.88519014 -93.0245992 177.27170757 -118.625 201.3125 Z M-72.625 250.3125 C-73.88425293 250.53776367 -75.14350586 250.76302734 -76.44091797 250.99511719 C-80.57027019 251.73949499 -84.69244627 252.51839903 -88.8125 253.3125 C-89.46996216 253.43788147 -90.12742432 253.56326294 -90.80480957 253.69244385 C-92.6781144 254.05432826 -94.54812945 254.43311592 -96.41796875 254.8125 C-97.4958667 255.0290625 -98.57376465 255.245625 -99.68432617 255.46875 C-104.1596244 256.75282062 -106.89885314 258.18572039 -109.4375 262.125 C-110.73127958 265.59777677 -111.15941905 267.64791221 -110.625 271.3125 C-108.35154821 275.60679782 -106.25220157 278.63883135 -101.625 280.3125 C-93.35254452 280.20314831 -85.16038577 278.40589105 -77.0625 276.875 C-39.52391764 270.07479664 -2.39841491 269.91992091 34.375 281.3125 C35.5498999 281.66538086 35.5498999 281.66538086 36.74853516 282.02539062 C48.43855965 285.59048359 58.99816874 290.38552423 69.59863281 296.48852539 C73.76994569 298.81619459 76.46035851 300.29611836 81.30078125 300.3828125 C86.24133182 298.66272247 88.5928616 295.62481453 91.375 291.3125 C93.03128591 287.88962123 93.03128591 287.88962123 92.375 284.3125 C88.42005761 278.36875204 83.42925434 274.58211397 77.125 271.4375 C76.31562988 271.02532227 75.50625977 270.61314453 74.67236328 270.18847656 C55.52251663 260.75107778 35.25291667 254.51835685 14.375 250.3125 C13.56659668 250.13605957 12.75819336 249.95961914 11.92529297 249.77783203 C-14.7344004 244.07755006 -45.95704003 245.41300807 -72.625 250.3125 Z " fill="#FFFFFF" transform="translate(249.625,48.6875)"/>
</svg>
