<?xml version="1.0" encoding="UTF-8"?>
<svg version="1.1" xmlns="http://www.w3.org/2000/svg" viewBox="0 0 500 500">
<path d="M0 0 C4 4.05605358 4 4.05605358 4 7 C1.66793649 7.79557375 -0.66554086 8.58651096 -3 9.375 C-3.64839844 9.59671875 -4.29679688 9.8184375 -4.96484375 10.046875 C-8.19355412 11.1337676 -11.34697292 12.08046819 -14.671875 12.8515625 C-20.72474748 14.32057756 -26.46625383 16.72024951 -32.25 19 C-32.86638336 19.24265594 -33.48276672 19.48531189 -34.11782837 19.73532104 C-56.07771687 28.41647748 -76.57051926 39.59777629 -96 53 C-95.39865234 52.74420166 -94.79730469 52.48840332 -94.17773438 52.22485352 C-45.96095849 31.77463555 3.32369378 17.98196671 56 17 C56.83837402 16.97953613 57.67674805 16.95907227 58.54052734 16.93798828 C110.36990859 15.7996047 160.01817949 25.86651278 207.44726562 46.39404297 C209.0647168 47.09231201 209.0647168 47.09231201 210.71484375 47.8046875 C211.68542725 48.22733887 212.65601074 48.64999023 213.65600586 49.08544922 C215.89118546 50.12116029 215.89118546 50.12116029 218 50 C213.68775684 47.29807386 209.35071521 44.63932537 205 42 C203.93168945 41.3498291 203.93168945 41.3498291 202.84179688 40.68652344 C181.64352238 27.86184556 157.40591012 15.56562198 133.01171875 10.4375 C131 10 131 10 129 9 C129.57889671 5.09244721 131.26808209 2.80548171 134 0 C142.59259093 -1.76675087 152.31454552 0.58685386 160.8125 2.1875 C162.04081543 2.41381104 163.26913086 2.64012207 164.53466797 2.87329102 C173.66356345 4.61428198 182.24135068 6.91739845 191 10 C192.45282164 10.46082155 193.9073399 10.91631944 195.36328125 11.3671875 C215.25803275 17.58790224 231.85137314 27.18314575 249 39 C249.75394043 39.49185791 250.50788086 39.98371582 251.28466797 40.49047852 C256.57261633 44.10838561 259.22882326 47.96228896 262 53.6875 C262.62382568 54.9262085 262.62382568 54.9262085 263.26025391 56.18994141 C269.13250818 68.03534779 274.38609631 80.1094213 278.01416016 92.83764648 C278.93467445 95.79045027 280.02027856 98.54134068 281.25390625 101.375 C284.39979419 108.83049632 287.11483796 116.41574582 289.75 124.0625 C290.13818405 125.18742859 290.13818405 125.18742859 290.53421021 126.33508301 C296.35519173 143.31404288 300.86534234 160.54429204 305 178 C305.25861816 179.0710498 305.51723633 180.14209961 305.78369141 181.24560547 C309.87789855 198.31756968 312.55022763 215.6288868 315 233 C315.20351074 234.38541992 315.20351074 234.38541992 315.41113281 235.79882812 C316.27368122 241.85853439 316.72805193 247.88629958 317 254 C317.05214661 255.13094086 317.05214661 255.13094086 317.10534668 256.284729 C317.35022593 261.79584165 317.51874594 267.30458834 317.62411499 272.82012939 C317.66596293 274.71321991 317.72249589 276.60604977 317.79458618 278.49822998 C318.41097523 295.62781638 318.41097523 295.62781638 312.66796875 302.015625 C311.13466333 303.36987538 309.58009235 304.70064333 308 306 C306.84633033 307.32982655 305.71557342 308.68045732 304.625 310.0625 C300.27906057 315.02361807 295.20539392 318.9788332 290 323 C289.4534375 323.4321582 288.906875 323.86431641 288.34375 324.30957031 C262.25485243 344.86940039 231.68790219 353.82634854 199 357.3125 C198.16879639 357.40128418 197.33759277 357.49006836 196.48120117 357.58154297 C188.59725021 358.31512373 188.59725021 358.31512373 185 357 C183.0078125 355.21484375 183.0078125 355.21484375 181.125 352.9375 C180.43148438 352.11507813 179.73796875 351.29265625 179.0234375 350.4453125 C178.35570312 349.63835937 177.68796875 348.83140625 177 348 C175.92072242 346.76727063 174.83752727 345.53795756 173.75 344.3125 C173.19570313 343.67441406 172.64140625 343.03632813 172.0703125 342.37890625 C170.89855873 341.03249484 169.72431431 339.68821481 168.54199219 338.35107422 C166.89642739 336.48972216 165.26039152 334.62029233 163.625 332.75 C163.08842773 332.14712158 162.55185547 331.54424316 161.99902344 330.9230957 C161.49661133 330.34519287 160.99419922 329.76729004 160.4765625 329.171875 C159.797146 328.3998877 159.797146 328.3998877 159.10400391 327.61230469 C157.84406987 325.77227719 157.41700077 324.17642554 157 322 C158.35416667 321.45833333 159.70833333 320.91666667 161.0625 320.375 C161.97902344 320.00632812 162.89554687 319.63765625 163.83984375 319.2578125 C166.0347479 318.38419181 168.23578459 317.52588514 170.44140625 316.6796875 C191.40240528 308.54424143 212.03926192 298.27407932 226 280 C225.53029785 280.27561768 225.0605957 280.55123535 224.57666016 280.83520508 C181.80111353 305.69791496 130.56411861 320.57948549 81 322 C80.2776416 322.02191406 79.5552832 322.04382813 78.81103516 322.06640625 C39.4821902 323.07204473 1.45088175 315.46072134 -36 304 C-37.03253906 303.69255859 -37.03253906 303.69255859 -38.0859375 303.37890625 C-56.21589673 297.89692253 -73.12924078 288.46697279 -90 280 C-72.65643573 301.06324342 -47.54022834 312.80315823 -22 321 C-23.46620385 325.5681149 -26.07125241 328.76584878 -29.1875 332.3125 C-29.68362793 332.88790527 -30.17975586 333.46331055 -30.69091797 334.05615234 C-33.85150721 337.71453697 -37.02823342 341.36174591 -40.2734375 344.9453125 C-42.12719685 347.08832325 -42.12719685 347.08832325 -44.0390625 349.9296875 C-44.76867187 350.94289063 -45.49828125 351.95609375 -46.25 353 C-46.89453125 353.94875 -47.5390625 354.8975 -48.203125 355.875 C-52.57528853 359.19686726 -56.69740453 358.43148571 -62 358 C-62.92425781 357.93264648 -63.84851563 357.86529297 -64.80078125 357.79589844 C-78.4961523 356.60979863 -91.46835534 354.00139275 -104.5390625 349.78955078 C-106.94536334 349.01752926 -109.36084895 348.28501362 -111.78125 347.55859375 C-135.14032656 340.38272083 -156.78083397 325.90882077 -173.28540039 307.83007812 C-174.99693857 305.94679568 -174.99693857 305.94679568 -177.03320312 304.19702148 C-183.28075911 297.90420377 -183.85335611 292.39572294 -183.85075378 283.94937134 C-183.80488451 281.19387505 -183.71725669 278.44180333 -183.625 275.6875 C-183.5877066 273.77169201 -183.55280493 271.85583601 -183.52026367 269.93994141 C-183.27133713 257.55599473 -182.78041512 245.26629555 -181 233 C-180.77401123 231.33155029 -180.77401123 231.33155029 -180.54345703 229.62939453 C-175.52689998 192.92323214 -166.9369236 157.0638977 -155 122 C-154.75455444 121.2765036 -154.50910889 120.5530072 -154.25622559 119.80758667 C-151.2663862 111.03371572 -147.99874976 102.43827922 -144.39971924 93.89602661 C-142.53348443 89.42651386 -141.01588601 84.97683572 -139.71679688 80.30761719 C-137.375097 72.76887494 -133.58929444 65.62602692 -130.19433594 58.51806641 C-129.21561254 56.45458457 -128.27840749 54.37986103 -127.3515625 52.29296875 C-123.02307913 43.5558449 -116.08908763 39.19185614 -108.00292969 34.22998047 C-106.19358921 33.11888133 -104.41054752 31.97712487 -102.6328125 30.81640625 C-90.80933659 23.25350956 -78.3998233 16.99955786 -65.03515625 12.67138672 C-62.75131568 11.91796043 -60.48653354 11.1168267 -58.21875 10.31640625 C-47.76251867 6.71296204 -37.32154754 4.04537083 -26.4375 2.0625 C-25.29716309 1.85109375 -24.15682617 1.6396875 -22.98193359 1.421875 C-6.6989667 -1.36016322 -6.6989667 -1.36016322 0 0 Z M-46.25 176.6875 C-54.3525473 187.28065066 -56.87844306 198.88842394 -56 212 C-54.02868341 224.12860884 -47.87607677 235.51389583 -38.1875 243.125 C-28.6265078 249.97734338 -18.83519135 253.26242041 -7 252 C5.76387341 249.12731238 15.27767732 242.52903033 23 232 C24.71413553 228.75089 25.94845483 225.51423127 27 222 C27.35320312 220.93007813 27.70640625 219.86015625 28.0703125 218.7578125 C31.38401163 205.36378491 29.68058381 189.67012678 22.6484375 177.69921875 C21.21629223 175.89503574 19.76533707 174.47777085 18 173 C16.95972656 172.09894531 16.95972656 172.09894531 15.8984375 171.1796875 C6.09809091 163.13060559 -3.50173721 159.40737545 -16.30078125 159.625 C-28.72984235 160.88496818 -38.28670122 167.43405784 -46.25 176.6875 Z M110.1875 175.75 C101.76733825 188.25995461 99.43644448 202.27089369 102.125 216.875 C104.19441233 225.9042755 107.85501393 233.90062165 115 240 C115.52335937 240.48984375 116.04671875 240.9796875 116.5859375 241.484375 C125.3749325 249.51775504 135.16387402 252.50948526 146.984375 252.2421875 C159.58945449 251.22986246 168.91208652 244.20484215 176.95703125 234.79296875 C184.64196353 224.28679939 188.04032624 212.22634801 186.375 199.3125 C183.81671698 185.73392088 177.46217968 175.97828887 167 167 C146.63542465 154.13030502 126.57963165 159.72213794 110.1875 175.75 Z " fill="#FEFEFE" transform="translate(183,71)"/>
</svg>
