<?xml version="1.0" encoding="UTF-8"?>
<svg version="1.1" xmlns="http://www.w3.org/2000/svg" width="1081" height="1080">
<path d="M0 0 C1.62128815 -0.00018127 1.62128815 -0.00018127 3.27532959 -0.00036621 C34.60113717 0.04878666 65.94861627 2.55576649 96.75 8.375 C99.22910095 8.82197921 101.70827194 9.2685701 104.1875 9.71484375 C128.86935194 14.2198297 152.96266097 20.39155008 176.75 28.375 C177.76916504 28.71257324 178.78833008 29.05014648 179.83837891 29.39794922 C195.79077503 34.69601663 211.33909511 40.66669179 226.75 47.375 C227.59691406 47.74061035 228.44382812 48.1062207 229.31640625 48.48291016 C273.40276064 67.58292146 315.58511748 92.08362082 353.95507812 121.02441406 C355.90567127 122.49213458 357.86621318 123.94588589 359.828125 125.3984375 C366.77021333 130.5510602 373.60626563 135.78599221 380.2578125 141.3125 C382.6444157 143.28761989 385.06555081 145.20936785 387.5 147.125 C397.8433475 155.38656441 407.71349769 164.22156448 417.3894043 173.25 C419.48631647 175.20449418 421.59170653 177.148594 423.7109375 179.07885742 C431.43950964 186.12929029 438.9251843 193.39384873 446.30908203 200.80371094 C448.14110995 202.6411576 449.97850605 204.4731165 451.81640625 206.3046875 C457.15402018 211.63928745 462.44073956 216.96499972 467.33544922 222.71533203 C469.52106006 225.27967143 471.82852555 227.72206571 474.125 230.1875 C478.39715901 234.81146666 482.43689637 239.5726478 486.3828125 244.48046875 C488.55615057 247.13796629 490.78423683 249.73059709 493.04125977 252.31640625 C499.48967533 259.71795786 505.41676482 267.42060277 511.23242188 275.32519531 C513.28384777 278.09607237 515.37074719 280.83937068 517.45678711 283.58422852 C519.44931867 286.2191868 521.41259953 288.87517372 523.37353516 291.53369141 C524.68506565 293.28813677 526.03167557 295.00955878 527.38671875 296.73046875 C528.52560547 298.25607422 528.52560547 298.25607422 529.6875 299.8125 C530.35652344 300.67746094 531.02554687 301.54242187 531.71484375 302.43359375 C533.73642309 308.1779305 530.15524177 313.60601845 527.7265625 318.85546875 C526.95174537 320.42896151 526.16743517 321.99780593 525.375 323.5625 C524.94219727 324.41980713 524.50939453 325.27711426 524.06347656 326.16040039 C507.88756531 357.7102767 487.33780662 387.44789458 464.18969727 414.28930664 C461.70687672 417.15020158 461.70687672 417.15020158 459.75 420.375 C459.09 420.375 458.43 420.375 457.75 420.375 C457.53214844 420.90996094 457.31429687 421.44492187 457.08984375 421.99609375 C455.26984381 425.22752221 452.84605986 427.76158853 450.3125 430.4375 C449.72557373 431.06092285 449.13864746 431.6843457 448.53393555 432.32666016 C442.39512721 438.78753155 436.13137486 445.12817793 429.85006714 451.45016479 C428.67270462 452.63560754 427.49682283 453.82252304 426.32254028 455.01101685 C419.86108849 461.54223008 413.36393449 467.75996803 406.13989258 473.45263672 C403.69991704 475.41528534 401.41080063 477.48586101 399.125 479.625 C392.06331487 486.04066346 384.39935036 491.68689507 376.75 497.375 C376.02216309 497.91705078 375.29432617 498.45910156 374.54443359 499.01757812 C344.26709613 521.46724793 311.54365338 541.35873766 276.95458984 556.39746094 C274.97733735 557.27419615 273.0267435 558.1865617 271.08203125 559.1328125 C238.27672186 575.07211537 202.19975328 586.11508159 166.75 594.375 C166.10796631 594.52584045 165.46593262 594.67668091 164.80444336 594.83209229 C130.88449945 602.78782636 96.47673737 607.71963776 61.75 610.375 C59.90051758 610.52146973 59.90051758 610.52146973 58.01367188 610.67089844 C49.26465105 611.3536255 40.5132993 611.91149765 31.75 612.375 C29.79151123 612.47989746 29.79151123 612.47989746 27.79345703 612.58691406 C4.02252597 613.80599171 -19.51275577 612.93940293 -43.25 611.375 C-44.11159729 611.31830139 -44.97319458 611.26160278 -45.86090088 611.20318604 C-88.81078153 608.34576124 -131.24870278 603.11870731 -172.97509766 592.22802734 C-176.15959217 591.3985489 -179.35022986 590.597843 -182.54296875 589.80078125 C-208.2132531 583.27009434 -233.61237372 574.857598 -257.93603516 564.36132812 C-260.21028424 563.39192885 -262.49657476 562.46244055 -264.79296875 561.546875 C-273.86191792 557.92616116 -282.58509909 553.85454168 -291.26611328 549.38671875 C-293.25075798 548.37461345 -295.24564145 547.38670111 -297.24609375 546.40625 C-306.77847546 541.72840805 -316.06756546 536.70651195 -325.25 531.375 C-326.15951416 530.847854 -326.15951416 530.847854 -327.08740234 530.31005859 C-337.60677771 524.1811308 -347.78889722 517.5454974 -357.95654297 510.85351562 C-360.87146791 508.97436027 -363.84394759 507.19742874 -366.83618164 505.44433594 C-367.3027417 505.09145508 -367.76930176 504.73857422 -368.25 504.375 C-368.25 503.715 -368.25 503.055 -368.25 502.375 C-368.92417969 502.148125 -369.59835937 501.92125 -370.29296875 501.6875 C-374.06938334 500.0113107 -377.22093585 497.78395459 -380.5625 495.375 C-381.20767578 494.92382812 -381.85285156 494.47265625 -382.51757812 494.0078125 C-384.13501255 492.85079063 -385.69793244 491.61833423 -387.25 490.375 C-387.25 489.715 -387.25 489.055 -387.25 488.375 C-388.10271484 487.98634766 -388.10271484 487.98634766 -388.97265625 487.58984375 C-393.5028778 485.17320755 -397.30564133 481.63361437 -401.25 478.375 C-401.75241211 477.96040527 -402.25482422 477.54581055 -402.77246094 477.11865234 C-410.63316883 470.61061467 -418.1943453 463.82696365 -425.65039062 456.86132812 C-427.76032698 454.90081339 -429.89121506 452.96389659 -432.02246094 451.02661133 C-439.23535988 444.46205001 -446.12171627 437.76768353 -452.4765625 430.36328125 C-454.28358156 428.33735019 -456.17705839 426.45269631 -458.125 424.5625 C-462.11347863 420.63573864 -465.59725474 416.38938256 -469.09765625 412.02734375 C-470.92847949 409.77121129 -472.80679973 407.59611277 -474.75 405.4375 C-478.58431443 401.12726363 -481.94282048 396.47730023 -485.33203125 391.81640625 C-487.01740868 389.31334974 -487.01740868 389.31334974 -489.25 388.375 C-489.25 387.385 -489.25 386.395 -489.25 385.375 C-489.91 385.375 -490.57 385.375 -491.25 385.375 C-492.4765625 383.79296875 -492.4765625 383.79296875 -493.875 381.5625 C-496.12728744 378.03257208 -498.49724451 374.64047293 -500.99609375 371.28125 C-505.16458764 365.57540867 -508.96849032 359.69343914 -512.6875 353.6875 C-513.33855713 352.63949219 -513.98961426 351.59148437 -514.66040039 350.51171875 C-521.49691854 339.44687318 -527.87998017 328.2306419 -533.75 316.625 C-534.08894287 315.95662109 -534.42788574 315.28824219 -534.77709961 314.59960938 C-538.14100941 307.8246933 -538.14100941 307.8246933 -538.25 305.375 C-537.01953125 303.140625 -537.01953125 303.140625 -535.0625 300.625 C-534.32644531 299.66207031 -533.59039063 298.69914062 -532.83203125 297.70703125 C-532.42033691 297.17803223 -532.00864258 296.6490332 -531.58447266 296.10400391 C-530.14200204 294.23507289 -528.73091982 292.34520714 -527.32421875 290.44921875 C-522.31353324 283.70018122 -517.24047347 277.0244175 -511.93359375 270.50390625 C-510.32497177 268.46980189 -508.8413992 266.38796752 -507.375 264.25 C-506.67375 263.30125 -505.9725 262.3525 -505.25 261.375 C-504.59 261.375 -503.93 261.375 -503.25 261.375 C-502.97526855 260.78259521 -502.70053711 260.19019043 -502.41748047 259.57983398 C-501.30026428 257.46992612 -500.1362591 255.88819754 -498.5703125 254.09765625 C-498.05339844 253.50146484 -497.53648437 252.90527344 -497.00390625 252.29101562 C-496.46636719 251.67935547 -495.92882812 251.06769531 -495.375 250.4375 C-494.31434446 249.2207139 -493.25443424 248.00327765 -492.1953125 246.78515625 C-491.69032227 246.20781738 -491.18533203 245.63047852 -490.66503906 245.03564453 C-489.3920957 243.54175896 -488.18724999 241.99048312 -486.9921875 240.43359375 C-486.41726563 239.75425781 -485.84234375 239.07492187 -485.25 238.375 C-484.59 238.375 -483.93 238.375 -483.25 238.375 C-483.0025 237.818125 -482.755 237.26125 -482.5 236.6875 C-480.26047286 232.54437479 -477.2020037 229.29044997 -473.87905884 225.99310303 C-471.86576458 223.99334866 -469.86410457 221.98220921 -467.86206055 219.97119141 C-463.72149997 215.81461961 -459.57872726 211.66026171 -455.43432903 207.50751686 C-452.93836319 205.00633824 -450.44334155 202.50423254 -447.95043945 200 C-445.05702408 197.09352775 -442.15946767 194.19121427 -439.26171875 191.2890625 C-438.3781218 190.40030426 -437.49452484 189.51154602 -436.58415222 188.59585571 C-431.63500657 183.64626723 -426.58079662 178.91011919 -421.25 174.375 C-420.05890842 173.34098006 -418.86866863 172.30597722 -417.6796875 171.26953125 C-414.51720678 168.52536809 -411.34944138 165.78733458 -408.18164062 163.04931641 C-406.37117807 161.48003529 -404.56758337 159.90324913 -402.765625 158.32421875 C-395.29348096 151.80626298 -387.57859582 145.69792187 -379.6640625 139.7265625 C-376.69405381 137.48358033 -373.7543485 135.20814766 -370.8359375 132.8984375 C-360.93244696 125.06605218 -350.78708131 117.75152858 -340.28759766 110.73828125 C-338.59535216 109.60606236 -336.9117653 108.46091472 -335.23046875 107.3125 C-316.54445616 94.61804928 -297.11893967 83.10681994 -277.25 72.375 C-276.17379395 71.79363281 -275.09758789 71.21226562 -273.98876953 70.61328125 C-219.31655852 41.27341857 -161.17823538 21.01910248 -100.25 9.375 C-99.24420898 9.17922363 -98.23841797 8.98344727 -97.20214844 8.78173828 C-82.06197739 5.86035374 -66.84524278 3.95964497 -51.49023438 2.57684326 C-49.85296224 2.4293264 -48.2159518 2.27889685 -46.57910156 2.12677002 C-31.03551938 0.69889465 -15.60805598 -0.02732131 0 0 Z M-35.25 57.375 C-36.56653564 57.55240723 -36.56653564 57.55240723 -37.90966797 57.73339844 C-82.38670175 63.95717422 -126.28400174 82.7636169 -160.25 112.375 C-161.3511712 113.29629862 -162.45415499 114.21543353 -163.55859375 115.1328125 C-175.61545801 125.20574123 -186.60690022 135.9404766 -196.25 148.375 C-197.29145535 149.68766768 -198.33313822 151.00015487 -199.375 152.3125 C-205.9298213 160.64238605 -211.89831296 169.0700276 -217.09033203 178.31298828 C-218.36598997 180.58124238 -219.66613398 182.83471629 -220.96484375 185.08984375 C-240.1589474 218.79760967 -250.18375879 255.65498293 -253.4375 294.1875 C-253.52161133 295.1767749 -253.60572266 296.1660498 -253.69238281 297.18530273 C-254.68502929 310.20680491 -254.35673063 323.01915697 -253 336 C-252.86505127 337.30324219 -252.73010254 338.60648438 -252.59106445 339.94921875 C-247.41514003 387.57358849 -230.19852834 433.70664991 -200.25 471.375 C-199.53457031 472.2825 -198.81914062 473.19 -198.08203125 474.125 C-185.7276752 489.5187463 -171.94638069 504.35581693 -156.25 516.375 C-155.70682129 516.79458984 -155.16364258 517.21417969 -154.60400391 517.64648438 C-139.85034442 528.98590289 -124.1047786 538.50379725 -107.25 546.375 C-106.6194873 546.6735791 -105.98897461 546.9721582 -105.33935547 547.27978516 C-93.97190658 552.62420451 -82.23449693 556.64844092 -70.25 560.375 C-69.00992188 560.766875 -67.76984375 561.15875 -66.4921875 561.5625 C-54.35326388 565.10186725 -41.75418289 566.66829538 -29.25 568.375 C-27.96947754 568.55224609 -26.68895508 568.72949219 -25.36962891 568.91210938 C-21.38151541 569.40326421 -17.41043136 569.56832112 -13.39453125 569.61328125 C-12.66293793 569.62298447 -11.9313446 569.63268768 -11.17758179 569.64268494 C-8.80583127 569.66758246 -6.43436827 569.68022241 -4.0625 569.6875 C-2.84054428 569.69142761 -2.84054428 569.69142761 -1.59390259 569.69543457 C19.55830226 569.70267308 40.40189677 567.3621991 60.75 561.375 C62.32784905 560.93910404 63.90599259 560.50427319 65.484375 560.0703125 C83.08853821 555.12399867 99.61960056 547.94467047 115.75 539.375 C116.35150879 539.05563477 116.95301758 538.73626953 117.57275391 538.40722656 C126.83666429 533.4304326 135.33316073 527.65653276 143.75 521.375 C144.54921875 520.77945312 145.3484375 520.18390625 146.171875 519.5703125 C148.39563861 517.87408406 150.57719467 516.1360385 152.75 514.375 C154.15572266 513.24771484 154.15572266 513.24771484 155.58984375 512.09765625 C168.9065275 501.23575744 181.29547698 489.02619449 191.75 475.375 C192.5440625 474.38628906 193.338125 473.39757812 194.15625 472.37890625 C200.73541517 464.13548669 206.34356001 455.42139686 211.75 446.375 C212.27956299 445.49956543 212.27956299 445.49956543 212.81982422 444.60644531 C246.84060612 388.16028444 257.27357745 317.35989548 241.875 253.3125 C239.5253218 243.87818603 236.87616741 234.58151244 233.75 225.375 C233.16798828 223.61542969 233.16798828 223.61542969 232.57421875 221.8203125 C225.26099956 200.42855083 213.98003632 179.6916307 200.75 161.375 C200.2657959 160.70259277 199.7815918 160.03018555 199.28271484 159.33740234 C197.65791215 157.09156832 196.01966111 154.85632599 194.375 152.625 C193.850271 151.90771729 193.32554199 151.19043457 192.78491211 150.45141602 C191.48957512 148.72098787 190.12544488 147.0424624 188.75 145.375 C188.09 145.375 187.43 145.375 186.75 145.375 C186.3478125 144.50875 186.3478125 144.50875 185.9375 143.625 C184.72070811 141.31949957 183.44666121 139.35443808 181.75 137.375 C181.09 137.375 180.43 137.375 179.75 137.375 C179.75 136.715 179.75 136.055 179.75 135.375 C179.09 135.375 178.43 135.375 177.75 135.375 C177.39808594 134.53388672 177.39808594 134.53388672 177.0390625 133.67578125 C166.12656309 114.19862322 137.50098063 98.14917018 118.75 87.375 C118.11239746 87.00616699 117.47479492 86.63733398 116.81787109 86.25732422 C71.2729647 60.19711608 16.61641978 50.18995477 -35.25 57.375 Z " fill="#FFFFFF" transform="translate(543.25,233.625)"/>
<path d="M0 0 C14.36495321 12.09947941 24.00263091 28.33372728 27 47 C28.92456182 69.7676088 24.46428926 89.32148148 10.25 107.375 C-2.44245032 121.79207334 -20.49662513 131.01283312 -39.7421875 132.23828125 C-58.30850431 132.74195752 -76.54682231 127.88199128 -90.6875 115.3125 C-92.14556925 113.89586788 -93.58359755 112.45829236 -95 111 C-95.81984375 110.22398437 -96.6396875 109.44796875 -97.484375 108.6484375 C-100.23686752 105.75062705 -102.43431175 102.67605305 -104.5625 99.3125 C-104.95453613 98.69455566 -105.34657227 98.07661133 -105.75048828 97.43994141 C-108.82643009 92.48318533 -111.23395039 87.57465155 -113 82 C-113.29648437 81.18402344 -113.59296875 80.36804688 -113.8984375 79.52734375 C-119.77110114 60.80486105 -116.22884102 41.03135428 -108.25 23.625 C-104.94216835 17.42600443 -100.67079503 12.21834826 -96 7 C-95.47019531 6.36449219 -94.94039062 5.72898437 -94.39453125 5.07421875 C-70.70356793 -21.41824666 -26.84111699 -20.45931295 0 0 Z " fill="#FFFFFF" transform="translate(677,385)"/>
</svg>
