<?xml version="1.0" encoding="UTF-8"?>
<svg xmlns="http://www.w3.org/2000/svg" viewBox="0 0 500 500">
  <!-- <symbol id="icon" viewBox="0 0 500 500"> -->
    <path d="M0 0 C57.09 0 114.18 0 173 0 C173 11.7101987 172.90182999 22.80460889 171.72265625 34.35546875 C171.5897659 35.72154959 171.45765914 37.08770684 171.32627869 38.45393372 C170.98459545 41.98436566 170.63198894 45.51361774 170.2769165 49.04272461 C169.98897911 51.92291823 169.70882138 54.80384455 169.42903996 57.6848402 C168.84868786 63.6607079 168.26227415 69.63597537 167.66430664 75.61010742 C167.50775352 77.17628059 167.50775352 77.17628059 167.34803772 78.77409363 C166.94376856 82.52120033 166.4674685 86.26025196 166 90 C131.35 90.495 131.35 90.495 96 91 C95.67 114.43 95.34 137.86 95 162 C114.04286074 161.96038855 114.04286074 161.96038855 133.08569336 161.90991211 C135.46207637 161.9069932 137.83845988 161.90444459 140.21484375 161.90234375 C141.462052 161.89722778 142.70926025 161.89211182 143.9942627 161.88684082 C145.17170044 161.88671997 146.34913818 161.88659912 147.56225586 161.88647461 C148.59039902 161.884254 149.61854218 161.88203339 150.67784119 161.87974548 C153 162 153 162 154 163 C154.06513992 165.73972957 154.06500665 168.4528566 154.02172852 171.19165039 C154.01212097 172.05011063 154.00251343 172.90857086 153.99261475 173.79304504 C153.95950262 176.64466239 153.91921715 179.4961323 153.87890625 182.34765625 C153.85461705 184.31920341 153.83077291 186.29075611 153.80735779 188.26231384 C153.74439735 193.46231362 153.67536481 198.66221602 153.60510254 203.86212158 C153.52212765 210.09534257 153.44663259 216.32865801 153.36989594 222.56195831 C153.25235325 232.04139071 153.12526074 241.52065228 153 251 C133.86 251 114.72 251 95 251 C95.00523682 255.71522949 95.01047363 260.43045898 95.01586914 265.28857422 C95.0324053 280.83104669 95.04352217 296.3735195 95.05181217 311.91599846 C95.056974 321.34358035 95.06401457 330.77115392 95.07543945 340.19873047 C95.08538972 348.41338104 95.09185425 356.62802558 95.09408849 364.842682 C95.09539502 369.19445422 95.0984772 373.54620921 95.10573006 377.89797592 C95.11249566 381.99037688 95.11461585 386.08275343 95.11310768 390.17515945 C95.11338376 391.68044924 95.1153857 393.18573981 95.11920547 394.69102478 C95.12415106 396.73971981 95.12239559 398.78842781 95.12025452 400.83712769 C95.12117631 401.98568174 95.1220981 403.1342358 95.12304783 404.31759453 C95 407 95 407 94 409 C91.68115234 409.60668945 91.68115234 409.60668945 88.5859375 410.11328125 C87.44431152 410.30664062 86.30268555 410.5 85.12646484 410.69921875 C83.26948975 411.00279297 83.26948975 411.00279297 81.375 411.3125 C72.3267666 412.85516468 63.33128489 414.48887008 54.375 416.5 C15.79798109 425.09531993 15.79798109 425.09531993 1 426 C0 425 0 425 -0.1241985 422.15068907 C-0.12381878 420.86001966 -0.12343906 419.56935026 -0.12304783 418.23956966 C-0.12420167 417.520857 -0.12535552 416.80214434 -0.12654433 416.06165251 C-0.12921786 413.62277978 -0.12468283 411.1839714 -0.12025452 408.74510193 C-0.12069007 406.99119856 -0.12156468 405.23729525 -0.12284368 403.4833923 C-0.1250918 398.63997455 -0.12106306 393.7965787 -0.11606562 388.95316374 C-0.11176582 383.73909034 -0.11320721 378.52501828 -0.1139679 373.3109436 C-0.11449343 364.26929365 -0.11134356 355.22765088 -0.10573006 346.18600273 C-0.09761904 333.11313512 -0.09500025 320.04027101 -0.09374207 306.96740115 C-0.09155092 285.75992236 -0.08488914 264.55244741 -0.07543945 243.3449707 C-0.06626696 222.73820007 -0.05918533 202.13143047 -0.05493164 181.5246582 C-0.05466892 180.25544781 -0.05440619 178.98623741 -0.05413551 177.67856609 C-0.05283052 171.31160645 -0.0515668 164.9446468 -0.05032361 158.57768714 C-0.03994904 105.71845469 -0.02150969 52.85922933 0 0 Z " fill="#ffffff" transform="translate(163,37)"/>
  <!-- </symbol> -->
</svg>
