<?xml version="1.0" encoding="UTF-8"?>
<svg version="1.1" xmlns="http://www.w3.org/2000/svg" viewBox="0 0 500 500">
<path d="M0 0 C1.99121126 -0.00135844 3.98242227 -0.00314084 5.97363281 -0.00531006 C11.33536667 -0.00983266 16.69708108 -0.00811606 22.05881524 -0.00493097 C27.70198633 -0.00237939 33.34515587 -0.00475275 38.98832703 -0.00631714 C48.46406347 -0.00813116 57.93979209 -0.00575317 67.41552734 -0.00097656 C78.32521261 0.00445985 89.23487916 0.0027048 100.14456397 -0.00280297 C109.55572299 -0.00736166 118.96687643 -0.00797108 128.3780362 -0.0053643 C133.97927957 -0.00381602 139.58051419 -0.00356748 145.18175697 -0.00690079 C150.45388018 -0.0098196 155.72597961 -0.00773125 160.99810028 -0.00200653 C162.91713865 -0.0007 164.83617908 -0.00103648 166.7552166 -0.0032692 C203.96229167 -0.04251934 235.41906759 4.36652081 266.66674805 26.12939453 C267.35381836 26.59152344 268.04088867 27.05365234 268.7487793 27.52978516 C270.42528259 28.6771316 272.05178994 29.8969265 273.66674805 31.12939453 C273.66674805 31.78939453 273.66674805 32.44939453 273.66674805 33.12939453 C274.22362305 33.37689453 274.78049805 33.62439453 275.35424805 33.87939453 C278.09085718 35.35864271 280.34325674 37.06406893 282.66674805 39.12939453 C282.66674805 39.78939453 282.66674805 40.44939453 282.66674805 41.12939453 C283.32674805 41.12939453 283.98674805 41.12939453 284.66674805 41.12939453 C284.66674805 41.78939453 284.66674805 42.44939453 284.66674805 43.12939453 C285.32674805 43.12939453 285.98674805 43.12939453 286.66674805 43.12939453 C286.66674805 43.78939453 286.66674805 44.44939453 286.66674805 45.12939453 C287.54073242 45.50064453 287.54073242 45.50064453 288.43237305 45.87939453 C290.9978904 47.314649 292.50399602 48.90602466 294.41674805 51.12939453 C295.0303418 51.83064453 295.64393555 52.53189453 296.27612305 53.25439453 C297.66674805 55.12939453 297.66674805 55.12939453 297.66674805 57.12939453 C298.32674805 57.12939453 298.98674805 57.12939453 299.66674805 57.12939453 C301.32422454 59.34744352 302.85270347 61.55846997 304.35424805 63.87939453 C305.02580933 64.90722046 305.02580933 64.90722046 305.7109375 65.95581055 C312.13780699 75.86164505 317.59891839 85.78715083 322.1862793 96.66064453 C323.50188668 99.92460176 323.50188668 99.92460176 324.76831055 102.06689453 C326.23715424 105.43884874 326.64914187 109.01370628 327.22924805 112.62939453 C327.47930868 114.14001723 327.73057216 115.6504414 327.9831543 117.16064453 C328.14473022 118.1593457 328.14473022 118.1593457 328.30957031 119.17822266 C328.62964426 121.10932466 328.62964426 121.10932466 329.16958809 122.87357807 C330.3324664 128.1500288 330.07114904 133.71023144 330.22094727 139.09692383 C330.24190956 139.81389982 330.26287185 140.5308758 330.28446937 141.26957834 C330.84132462 160.7055396 330.81374503 180.14487913 330.80107355 199.5871489 C330.798489 204.81735165 330.80090358 210.0475529 330.80245972 215.27775574 C330.80426194 224.03567833 330.80192474 232.79359239 330.79711914 241.55151367 C330.79165806 251.61913506 330.79346042 261.68673624 330.79894555 271.75435716 C330.80350624 280.48137928 330.80411349 289.20839538 330.80150688 297.93541831 C330.79996312 303.11222552 330.79969773 308.28902328 330.80304337 313.46582985 C330.80596631 318.32451117 330.80386662 323.18316674 330.79814911 328.04184532 C330.79684589 329.80567253 330.7971731 331.56950198 330.79941177 333.33332825 C330.83857259 367.36579722 330.83857259 367.36579722 328.10424805 380.06689453 C327.93715332 380.8691748 327.77005859 381.67145508 327.59790039 382.49804688 C324.54384708 396.08241299 319.47061057 409.56548915 311.66674805 421.12939453 C311.04799805 422.26376953 310.42924805 423.39814453 309.79174805 424.56689453 C307.37988844 428.84896731 304.39107817 432.73199761 301.47143555 436.67626953 C300.15802189 438.46160238 298.89619055 440.28523078 297.66674805 442.12939453 C297.00674805 442.12939453 296.34674805 442.12939453 295.66674805 442.12939453 C295.45018555 442.67080078 295.23362305 443.21220703 295.01049805 443.77001953 C293.20174808 446.94584797 290.74951005 449.33667535 288.16674805 451.87939453 C287.66788086 452.38599609 287.16901367 452.89259766 286.6550293 453.41455078 C282.92015944 457.12939453 282.92015944 457.12939453 280.66674805 457.12939453 C280.66674805 457.78939453 280.66674805 458.44939453 280.66674805 459.12939453 C274.22547388 464.67695553 267.19335843 469.21607891 259.66674805 473.12939453 C258.85077148 473.59861328 258.03479492 474.06783203 257.1940918 474.55126953 C244.64497206 481.7221951 231.72876058 486.07297969 217.66674805 489.12939453 C217.01066339 489.28860508 216.35457872 489.44781563 215.67861271 489.61185074 C207.54018833 491.4532181 199.32980838 491.82232018 191.02587891 492.23779297 C190.22368482 492.27971756 189.42149074 492.32164214 188.59498775 492.36483717 C170.25656571 493.30931147 151.93388019 493.42572276 133.57517362 493.39804554 C129.00364062 493.39283424 124.43211392 493.3977169 119.86058044 493.40081787 C112.20423911 493.4044124 104.5479369 493.39977679 96.89160156 493.39013672 C88.13282861 493.37923356 79.37414872 493.38280977 70.61537796 493.39378953 C62.98364503 493.40296054 55.35193955 493.40410129 47.72020286 493.39891219 C43.21046712 493.39584911 38.70077463 493.39522207 34.19104195 493.40198517 C-26.96622104 493.4808862 -26.96622104 493.4808862 -50.52075195 486.75439453 C-51.69142212 486.42242065 -51.69142212 486.42242065 -52.88574219 486.08374023 C-58.29391518 484.51256541 -63.28396482 482.62585228 -68.33325195 480.12939453 C-69.61679515 479.55546091 -70.90214794 478.98556678 -72.1887207 478.41845703 C-81.52316126 474.25189837 -90.44988994 469.73770843 -98.33325195 463.12939453 C-98.33325195 462.46939453 -98.33325195 461.80939453 -98.33325195 461.12939453 C-99.20143555 460.73880859 -99.20143555 460.73880859 -100.0871582 460.34033203 C-102.48520637 459.04747128 -104.25543892 457.58214378 -106.27075195 455.75439453 C-108.43995954 453.80530949 -110.56773135 451.95210523 -112.89575195 450.19189453 C-116.45688972 447.17862411 -119.32639652 443.68507406 -122.33325195 440.12939453 C-123.11055664 439.25154297 -123.88786133 438.37369141 -124.6887207 437.46923828 C-158.13394429 398.94241483 -158.66580232 351.50273388 -158.60190296 303.17783546 C-158.59674479 298.03469274 -158.60156162 292.89155619 -158.60467529 287.74841309 C-158.60828956 279.11172178 -158.60358602 270.47506494 -158.59399414 261.83837891 C-158.58314232 251.95520387 -158.58662175 242.07211161 -158.59764695 232.18893862 C-158.60682646 223.60617015 -158.60795309 215.02342609 -158.60276961 206.44065428 C-158.59970402 201.35772575 -158.59908577 196.27483561 -158.60584259 191.19190979 C-158.62781111 171.95998634 -158.51864828 152.76762318 -157.44946289 133.56103516 C-157.4111726 132.84398187 -157.37288232 132.12692858 -157.33343172 131.3881464 C-155.87837303 104.97606807 -146.93376743 79.53807888 -130.9699707 58.34423828 C-129.31703443 56.24021224 -129.31703443 56.24021224 -128.33325195 54.12939453 C-127.67325195 54.12939453 -127.01325195 54.12939453 -126.33325195 54.12939453 C-126.33325195 53.46939453 -126.33325195 52.80939453 -126.33325195 52.12939453 C-125.67325195 52.12939453 -125.01325195 52.12939453 -124.33325195 52.12939453 C-124.09477539 51.57638672 -123.85629883 51.02337891 -123.6105957 50.45361328 C-110.38592537 26.39037521 -77.59199838 11.30324701 -52.5012207 3.93798828 C-35.43544271 -0.41788847 -17.49081074 -0.02027898 0 0 Z M-42.33325195 42.12939453 C-43.43266381 42.41728521 -43.43266381 42.41728521 -44.554286 42.71099186 C-58.73578616 46.62101777 -71.31294367 53.42411463 -82.33325195 63.12939453 C-83.15180664 63.80486328 -83.97036133 64.48033203 -84.8137207 65.17626953 C-94.9149436 73.75839379 -102.59422683 84.19222227 -108.33325195 96.12939453 C-108.84629883 97.15033203 -109.3593457 98.17126953 -109.88793945 99.22314453 C-117.98152306 116.45724295 -118.92838217 134.48903552 -118.85083008 153.2434082 C-118.85626578 155.48476106 -118.86339647 157.72611034 -118.87207031 159.967453 C-118.89013124 165.9921024 -118.88330891 172.01647437 -118.87055397 178.04112792 C-118.86033993 184.38055969 -118.86984241 190.71996964 -118.87609863 197.05940247 C-118.8838119 208.37550051 -118.87148131 219.69145922 -118.85106128 231.00752936 C-118.83318243 241.23139958 -118.83631214 251.45508809 -118.85473633 261.67895508 C-118.87622373 273.60790374 -118.88406838 285.53674244 -118.87228727 297.46571714 C-118.86608418 303.75993125 -118.86512874 310.05402068 -118.87843323 316.34822655 C-118.89007076 322.26564302 -118.88182271 328.18271945 -118.8588562 334.10009956 C-118.85361181 336.25863457 -118.85500865 338.4171987 -118.86390686 340.57572174 C-118.96315691 367.11836907 -112.05565711 391.72388777 -94.89575195 412.56689453 C-94.05012695 413.41251953 -93.20450195 414.25814453 -92.33325195 415.12939453 C-91.67325195 415.12939453 -91.01325195 415.12939453 -90.33325195 415.12939453 C-90.33325195 415.78939453 -90.33325195 416.44939453 -90.33325195 417.12939453 C-89.67325195 417.12939453 -89.01325195 417.12939453 -88.33325195 417.12939453 C-88.33325195 417.78939453 -88.33325195 418.44939453 -88.33325195 419.12939453 C-87.67325195 419.12939453 -87.01325195 419.12939453 -86.33325195 419.12939453 C-86.33325195 419.78939453 -86.33325195 420.44939453 -86.33325195 421.12939453 C-85.67325195 421.12939453 -85.01325195 421.12939453 -84.33325195 421.12939453 C-84.33325195 421.78939453 -84.33325195 422.44939453 -84.33325195 423.12939453 C-83.67325195 423.12939453 -83.01325195 423.12939453 -82.33325195 423.12939453 C-82.13086914 423.67982422 -81.92848633 424.23025391 -81.7199707 424.79736328 C-75.70934285 434.90537688 -61.89608895 441.04153848 -51.33325195 445.12939453 C-50.26518311 445.54511719 -50.26518311 445.54511719 -49.17553711 445.96923828 C-46.9256968 446.8248183 -44.66564914 447.64114434 -42.39575195 448.44189453 C-41.39656738 448.8060144 -41.39656738 448.8060144 -40.37719727 449.17749023 C-26.28013102 453.87485071 -10.99405943 453.42096709 3.67431641 453.38818359 C5.73773827 453.3909001 7.80115916 453.3944647 9.86457825 453.39880371 C15.42247078 453.40785218 20.98028832 453.40441469 26.53818202 453.39804554 C32.38381941 453.39294552 38.22945083 453.3976881 44.0750885 453.40081787 C53.88877503 453.40444621 63.70243135 453.39968851 73.51611328 453.39013672 C84.82348266 453.37925742 96.13077986 453.38277855 107.43814749 453.39378953 C117.18643206 453.40289838 126.93469505 453.40413006 136.6829825 453.39891219 C142.48761556 453.39581182 148.29221481 453.39532945 154.09684563 453.40198517 C159.55776621 453.40781049 165.01859478 453.40366794 170.47950554 453.39219666 C172.47033537 453.38957745 174.46117309 453.39026755 176.45199966 453.39472198 C192.32801404 453.42693838 207.83048051 453.35669387 222.66674805 447.12939453 C223.65545898 446.79294922 224.64416992 446.45650391 225.6628418 446.10986328 C240.13417214 441.09715032 254.28973859 432.39163767 263.66674805 420.12939453 C264.32674805 419.79939453 264.98674805 419.46939453 265.66674805 419.12939453 C265.66674805 418.46939453 265.66674805 417.80939453 265.66674805 417.12939453 C266.32674805 417.12939453 266.98674805 417.12939453 267.66674805 417.12939453 C269.07733523 415.15516892 270.37848566 413.18075315 271.66674805 411.12939453 C272.38733398 410.06462891 273.10791992 408.99986328 273.8503418 407.90283203 C280.53047339 397.90751681 284.94013076 387.89099962 288.41674805 376.37939453 C288.62783203 375.68225342 288.83891602 374.9851123 289.05639648 374.2668457 C289.25265625 373.58726807 289.44891602 372.90769043 289.65112305 372.20751953 C289.82353516 371.61358398 289.99594727 371.01964844 290.17358398 370.40771484 C291.58370781 363.89322201 291.81538799 357.45108697 291.81391907 350.81581116 C291.8194341 349.45760172 291.8194341 349.45760172 291.82506055 348.07195371 C291.83602436 345.05471782 291.83992876 342.03751644 291.84375 339.02026367 C291.85002024 336.84964897 291.85666754 334.67903534 291.86366272 332.50842285 C291.88464143 325.39380634 291.89506036 318.27918977 291.9050293 311.16455078 C291.90907938 308.70828172 291.91319637 306.25201278 291.91737938 303.79574394 C291.93641864 292.25150862 291.95065148 280.70727963 291.95899135 269.16303164 C291.96875474 255.87044578 291.99505623 242.57806789 292.03549224 229.28553492 C292.06572947 218.98965032 292.08046749 208.69381337 292.08377236 198.39788526 C292.0861144 192.25883941 292.09496432 186.11997212 292.12023354 179.9809742 C292.1436522 174.19836307 292.14769232 168.41604637 292.13747215 162.63339996 C292.13698 160.52323612 292.14320451 158.41305708 292.1570282 156.30293846 C292.23535287 143.62723135 291.17608826 132.32257325 287.66674805 120.12939453 C287.35532018 118.95541139 287.04389231 117.78142824 286.72302723 116.57186985 C283.89354255 106.02647587 278.81748766 95.18997412 272.66674805 86.12939453 C272.00674805 86.12939453 271.34674805 86.12939453 270.66674805 86.12939453 C270.40764648 85.55318359 270.14854492 84.97697266 269.8815918 84.38330078 C268.57075422 81.95129667 267.07076971 80.12227032 265.22924805 78.06689453 C264.63241211 77.39529297 264.03557617 76.72369141 263.4206543 76.03173828 C262.5524707 75.09007813 262.5524707 75.09007813 261.66674805 74.12939453 C261.13952148 73.55318359 260.61229492 72.97697266 260.0690918 72.38330078 C258.73179235 70.90721052 258.73179235 70.90721052 256.66674805 71.12939453 C256.00674805 69.80939453 255.34674805 68.48939453 254.66674805 67.12939453 C254.00674805 67.12939453 253.34674805 67.12939453 252.66674805 67.12939453 C252.66674805 66.46939453 252.66674805 65.80939453 252.66674805 65.12939453 C252.00674805 65.12939453 251.34674805 65.12939453 250.66674805 65.12939453 C250.66674805 64.46939453 250.66674805 63.80939453 250.66674805 63.12939453 C229.31270786 44.21708451 201.93668811 38.49027883 174.3046875 38.62768555 C172.10817113 38.62389366 169.91165717 38.6183865 167.71514893 38.61131287 C161.80001147 38.59745698 155.88516809 38.60845718 149.97004724 38.62502408 C143.75331968 38.63896818 137.53660759 38.63240411 131.31987 38.62889099 C120.22124534 38.62602477 109.12274785 38.64249184 98.02415391 38.66731172 C87.98920949 38.68928013 77.95439577 38.69318328 67.91943359 38.68334961 C54.97093089 38.67072113 42.02252518 38.67326398 29.07402611 38.68900871 C24.14814794 38.69474229 19.22232089 38.69470667 14.29644203 38.68994331 C8.49074263 38.68514577 2.68525255 38.69538964 -3.1204071 38.71689796 C-5.24149685 38.72242754 -7.36260688 38.72296669 -9.48369789 38.7179451 C-20.86013347 38.69440351 -31.30378713 39.05703808 -42.33325195 42.12939453 Z " fill="#FEFEFE" transform="translate(163.333251953125,3.87060546875)"/>
<path d="M0 0 C28.2467327 -1.16133782 58.20777873 8.51360107 80.0703125 26.25390625 C81.0603125 26.91390625 82.0503125 27.57390625 83.0703125 28.25390625 C83.0703125 28.91390625 83.0703125 29.57390625 83.0703125 30.25390625 C83.66457031 30.53363281 84.25882813 30.81335938 84.87109375 31.1015625 C92.61904899 35.1613259 97.81596473 42.48790904 103.0703125 49.25390625 C103.74191406 50.09824219 104.41351563 50.94257813 105.10546875 51.8125 C120.29388432 71.65104678 127.90592243 95.42261096 129.0703125 120.25390625 C129.13605469 121.50816406 129.20179688 122.76242188 129.26953125 124.0546875 C130.52257345 159.39822823 116.6062476 191.35280873 93.0703125 217.12890625 C89.93701784 220.48191365 86.78926661 223.55263891 83.0703125 226.25390625 C82.4103125 226.25390625 81.7503125 226.25390625 81.0703125 226.25390625 C81.0703125 226.91390625 81.0703125 227.57390625 81.0703125 228.25390625 C70.30539849 236.34803147 58.60461428 242.41868213 46.0703125 247.25390625 C45.39645508 247.51429688 44.72259766 247.7746875 44.02832031 248.04296875 C18.46747762 257.61726173 -11.50235879 256.57919081 -36.9296875 247.25390625 C-37.56503418 247.02687012 -38.20038086 246.79983398 -38.85498047 246.56591797 C-52.61295125 241.60097825 -64.85315296 234.90709697 -75.9296875 225.25390625 C-76.78433594 224.52042969 -77.63898438 223.78695312 -78.51953125 223.03125 C-83.68359873 218.50395475 -88.88273435 213.84191772 -92.9296875 208.25390625 C-92.9296875 207.59390625 -92.9296875 206.93390625 -92.9296875 206.25390625 C-93.5896875 206.25390625 -94.2496875 206.25390625 -94.9296875 206.25390625 C-116.77610231 179.97430672 -123.33784074 146.50567073 -120.62109375 113.02734375 C-117.24614177 77.90373631 -100.74057241 50.96194644 -74.69921875 27.609375 C-72.9296875 26.25390625 -72.9296875 26.25390625 -70.9296875 26.25390625 C-70.9296875 25.59390625 -70.9296875 24.93390625 -70.9296875 24.25390625 C-50.47969592 8.40680667 -25.33802167 2.19596188 0 0 Z M-7.765625 40.3515625 C-28.23576927 41.31807052 -45.21897294 52.16817918 -59.34765625 66.37109375 C-61.14412211 68.09923846 -61.14412211 68.09923846 -60.9296875 70.25390625 C-61.5896875 70.25390625 -62.2496875 70.25390625 -62.9296875 70.25390625 C-80.60398267 91.24029985 -83.69943375 115.58654727 -81.9296875 142.25390625 C-81.0182024 148.5278587 -79.17637098 154.34330001 -76.9296875 160.25390625 C-76.48109375 161.55521484 -76.48109375 161.55521484 -76.0234375 162.8828125 C-73.27662223 169.99146867 -68.38218986 176.12864058 -63.9296875 182.25390625 C-63.38441406 183.04152344 -62.83914062 183.82914063 -62.27734375 184.640625 C-61.61025391 185.43919922 -61.61025391 185.43919922 -60.9296875 186.25390625 C-60.2696875 186.25390625 -59.6096875 186.25390625 -58.9296875 186.25390625 C-58.9296875 186.91390625 -58.9296875 187.57390625 -58.9296875 188.25390625 C-58.2696875 188.25390625 -57.6096875 188.25390625 -56.9296875 188.25390625 C-56.72730469 188.80433594 -56.52492188 189.35476563 -56.31640625 189.921875 C-48.98353381 202.25349429 -31.11319741 209.08374688 -17.9296875 212.62890625 C3.25940454 217.97264657 27.65814606 215.50112742 46.72851562 204.22705078 C64.60206119 192.79428515 82.07524826 174.40662455 87.0703125 153.25390625 C92.58585373 124.6351039 89.17139452 100.01621966 74.3671875 74.984375 C73.93921875 74.41332031 73.51125 73.84226563 73.0703125 73.25390625 C72.4103125 73.25390625 71.7503125 73.25390625 71.0703125 73.25390625 C70.72419922 72.42439453 70.72419922 72.42439453 70.37109375 71.578125 C62.32329909 57.19843184 43.78285601 47.10114719 28.71923828 42.49023438 C16.6869727 39.12347647 4.58687045 40.0370896 -7.765625 40.3515625 Z " fill="#FEFEFE" transform="translate(245.9296875,122.74609375)"/>
<path d="M0 0 C8.34980248 6.37904165 15.0565344 13.39927852 17 24 C18.06279895 33.86679564 16.08345438 42.09945834 10.40234375 50.30859375 C8.8125 52.25 8.8125 52.25 6 55 C5.34 55 4.68 55 4 55 C4 55.66 4 56.32 4 57 C2.3970947 57.81498562 0.79262722 58.62689927 -0.8125 59.4375 C-1.70582031 59.88996094 -2.59914063 60.34242188 -3.51953125 60.80859375 C-10.82571784 64.31786447 -20.45055373 64.28091206 -28.21875 62.09375 C-30.95797125 60.89341709 -33.45676806 59.57142786 -36 58 C-36.76183594 57.53078125 -37.52367187 57.0615625 -38.30859375 56.578125 C-46.5457514 50.95569812 -49.73086857 42.46276087 -52 33 C-52.57990392 26.99834381 -51.07031545 22.98286765 -48.5625 17.6875 C-48.23701172 16.97271484 -47.91152344 16.25792969 -47.57617188 15.52148438 C-46.42147993 12.99544694 -45.24215434 10.48430868 -44 8 C-43.34 8 -42.68 8 -42 8 C-41.690625 7.13375 -41.690625 7.13375 -41.375 6.25 C-38.45674732 1.47467743 -33.08982389 -0.85166165 -27.890625 -2.4609375 C-19.34308936 -4.05493739 -7.45307946 -5.03242118 0 0 Z " fill="#FEFEFE" transform="translate(394,89)"/>
</svg>
