<?xml version="1.0" encoding="UTF-8"?>
<svg version="1.1" xmlns="http://www.w3.org/2000/svg" width="1081" height="1080">
<path d="M0 0 C9.15104755 0.2229426 18.30200871 0.44914297 27.45289326 0.67867851 C31.70985533 0.78537276 35.966833 0.8912492 40.22387695 0.99462891 C60.43229277 1.48618098 80.63483805 2.07621598 100.83684731 2.78491783 C127.64092048 3.72435514 154.4474917 4.51618528 181.2578125 5.25390625 C182.71108417 5.29393863 182.71108417 5.29393863 184.19371486 5.33477974 C198.15361172 5.71921092 212.11361239 6.09980302 226.07363892 6.47949219 C240.25627487 6.86531004 254.43888339 7.25210463 268.62140548 7.6420874 C273.35585492 7.77219093 278.09032018 7.90163985 282.82483292 8.02942085 C316.29931071 8.93315662 316.29931071 8.93315662 331.85888672 9.50756836 C333.39458407 9.56007799 333.39458407 9.56007799 334.96130562 9.61364841 C335.87600561 9.64973681 336.7907056 9.68582521 337.73312378 9.7230072 C338.90903485 9.76729056 338.90903485 9.76729056 340.10870171 9.81246853 C342 10 342 10 344 11 C344.01733475 81.09999022 344.03320269 151.19998071 344.04234314 221.29997253 C344.0424812 222.35596317 344.04261925 223.41195381 344.04276149 224.49994417 C344.04576206 247.51012147 344.04853111 270.52029879 344.05106533 293.53047614 C344.05231147 304.83257329 344.05360819 316.13467044 344.05493164 327.43676758 C344.0550624 328.56080677 344.05519316 329.68484596 344.05532788 330.84294694 C344.05925019 364.3720846 344.06586318 397.90122077 344.07458849 431.43035751 C344.08805506 483.34975681 344.09693611 535.26915523 344.09761363 587.1885564 C344.09764205 589.32636029 344.09767587 591.46416419 344.09771509 593.60196809 C344.09946565 690.32828431 344.06025469 787.05407456 343 1062 C342.44507276 1062.01969314 341.89014551 1062.03938627 341.31840229 1062.05967617 C327.76112465 1062.54097914 314.20395757 1063.02529837 300.64690113 1063.51279354 C294.09057773 1063.74846121 287.53422257 1063.98315533 280.9777832 1064.21557617 C274.64291178 1064.44017927 268.30813915 1064.66740288 261.97342491 1064.89639473 C259.56433087 1064.98302873 257.15520346 1065.06874042 254.74604225 1065.15348625 C238.54844913 1065.68768772 238.54844913 1065.68768772 222.38423157 1066.80934143 C218.70896276 1067.10323968 215.05836586 1067.06318167 211.375 1067 C201.63921479 1066.92267749 191.91833993 1067.16326887 182.1875 1067.4375 C181.44868591 1067.45723877 180.70987183 1067.47697754 179.94866943 1067.49731445 C172.48770061 1067.69858729 165.05729841 1067.96944686 157.61328125 1068.53515625 C152.25251946 1068.91529508 146.95489928 1069.04732095 141.5859375 1069.0078125 C128.01117199 1068.91592535 114.44569801 1069.39946105 100.87874985 1069.80751419 C98.59811633 1069.875805 96.3174514 1069.94293784 94.03677368 1070.00973511 C72.8402333 1070.6313794 51.64947137 1071.35389273 30.46017456 1072.18981934 C9.9775841 1072.99711164 -10.50632695 1073.56520538 -31 1074 C-31.17136964 1060.70838019 -30.9178292 1047.4434425 -30.484375 1034.16015625 C-30.45704788 1033.3224148 -30.42972076 1032.48467335 -30.40156555 1031.62154579 C-30.25203142 1027.06459318 -30.09987187 1022.50773147 -29.94677734 1017.95089722 C-29.59255589 1007.38694132 -29.25508633 996.82244977 -28.921875 986.2578125 C-28.88537338 985.10101171 -28.84887177 983.94421093 -28.81126404 982.75235558 C-28.14872768 961.64642425 -27.56935812 940.53869874 -27.015625 919.4296875 C-26.98455202 918.24536853 -26.98455202 918.24536853 -26.9528513 917.03712392 C-26.67623854 906.48686385 -26.4020689 895.93654062 -26.12840271 885.38620377 C-25.74434933 870.58162253 -25.35854719 855.77708745 -24.96875 840.97265625 C-24.94778731 840.17643191 -24.92682463 839.38020757 -24.90522671 838.55985522 C-24.19194635 811.49520522 -23.3927717 784.43437334 -22.5 757.375 C-21.161298 716.79605697 -20.07133724 676.21168333 -19 635.625 C-18.65746035 622.64970737 -18.31437795 609.67442953 -17.96875 596.69921875 C-17.94780399 595.91279959 -17.92685799 595.12638044 -17.90527725 594.3161304 C-17.15342203 566.11056834 -16.31789755 537.90837849 -15.41233063 509.70730972 C-14.51634263 481.79385243 -13.71113063 453.87864376 -12.9609375 425.9609375 C-12.93848182 425.1259121 -12.91602613 424.29088669 -12.89288998 423.43055749 C-12.43995443 406.58491883 -11.99052142 389.73918889 -11.54857767 372.89325809 C-11.38212878 366.55009402 -11.21438754 360.2069649 -11.04580176 353.86385727 C-10.92902986 349.46568729 -10.8140999 345.06747479 -10.70073056 340.66921586 C-10.64707159 338.60037866 -10.59242825 336.53157008 -10.5373764 334.46276951 C-10.47163899 331.99230831 -10.40729279 329.52180932 -10.3449173 327.05126095 C-10.15025141 319.85086102 -9.85303338 312.66077137 -9.51246643 305.46600342 C-8.98851194 294.31338731 -8.65565756 283.16061404 -8.36743164 271.99975586 C-8.31159972 269.89846314 -8.25557874 267.79717545 -8.1993866 265.69589233 C-8.07981647 261.21053491 -7.9615108 256.72514666 -7.84422493 252.23972893 C-7.6568481 245.07590093 -7.4662537 237.91216052 -7.2752533 230.74842834 C-6.8685596 215.47818326 -6.46540886 200.20784534 -6.0625 184.9375 C-3.03311802 70.14426496 -3.03311802 70.14426496 -1.87109375 34.00390625 C-1.83268938 32.77966383 -1.79428501 31.55542141 -1.75471687 30.29408073 C-1.64949033 26.96747894 -1.53952924 23.64107572 -1.42749023 20.31469727 C-1.39863928 19.3942695 -1.36978832 18.47384174 -1.3400631 17.52552223 C-1.13317067 11.65221299 -0.65199979 5.84042464 0 0 Z " fill="#FFFFFF" transform="translate(55,3)"/>
<path d="M0 0 C9.99285906 -0.02328113 19.98570331 -0.04123208 29.97858429 -0.05181217 C34.62489357 -0.05690472 39.27118277 -0.06373328 43.91748047 -0.07543945 C64.08197045 -0.12474289 84.2311892 -0.03173207 104.390625 0.44140625 C126.84738374 0.96803389 149.30445013 1.24987361 171.765625 1.5 C173.61379002 1.52073476 175.4619549 1.5414823 177.31011963 1.56224251 C192.55468343 1.73311756 207.799311 1.89805772 223.04394531 2.0625 C236.28453822 2.2054214 249.52510296 2.35064897 262.765625 2.5 C263.67008425 2.51016521 264.5745435 2.52033043 265.5064106 2.53080368 C292.67596951 2.83701085 319.83863802 3.2408504 347 4 C347.84990395 15.18565077 348.27177316 26.34662936 348.54077148 37.55932617 C348.58666178 39.37550028 348.63283312 41.1916673 348.67926025 43.00782776 C348.7781471 46.89852432 348.87512183 50.78926198 348.97057915 54.68004417 C349.12329923 60.90212279 349.2807234 67.12407742 349.43873596 73.34602356 C349.74698595 85.50801507 350.05073693 97.67011682 350.35385132 109.83223724 C350.81422387 128.29840833 351.27754057 146.76450335 351.74609375 165.23046875 C351.78644501 166.82329044 351.78644501 166.82329044 351.82761145 168.44829035 C352.4889742 194.53469806 353.20495677 220.61584787 354.12406731 246.69459343 C354.96250538 270.58971359 355.59944688 294.48897209 356.21875 318.390625 C356.24488979 319.39833899 356.27102957 320.40605298 356.29796147 321.44430375 C356.6751684 335.99279285 357.04771202 350.54140028 357.41927338 365.09003448 C357.87049844 382.75280284 358.32412905 400.41550823 358.78125 418.078125 C358.82038958 419.59257466 358.82038958 419.59257466 358.86031985 421.13761926 C359.54935588 447.78653032 360.29650347 474.43205775 361.15797615 501.07595634 C361.84198332 522.274108 362.42730918 543.47349701 362.96484375 564.67578125 C362.98463681 565.4559418 363.00442986 566.23610234 363.02482271 567.03990412 C363.2475558 575.82506739 363.46833784 584.6102792 363.68847656 593.39550781 C364.11770107 610.52035144 364.55513553 627.64498603 364.99609375 644.76953125 C365.02875029 646.0383372 365.02875029 646.0383372 365.06206656 647.33277559 C365.81721336 676.65111434 366.66064694 705.9657574 367.58791351 735.27918625 C368.48384194 763.62925423 369.27598138 791.98112396 370.00390625 820.3359375 C370.03662321 821.60939545 370.03662321 821.60939545 370.07000113 822.90857983 C370.5098143 840.0329923 370.94537939 857.15751011 371.37269413 874.2822392 C371.57222786 882.27732659 371.77324159 890.27237594 371.97568274 898.26739025 C372.01527506 899.83168214 372.05480219 901.39597568 372.09426355 902.96027088 C372.52780657 920.13727025 372.99038172 937.31246018 373.56591797 954.48535156 C373.58932168 955.18557159 373.6127254 955.88579161 373.63683832 956.60723042 C373.8779888 963.80594207 374.12698651 971.00431941 374.38746643 978.20236206 C374.88117226 992.14231142 375.1117456 1006.05139049 375 1020 C365.62249377 1020.76315314 356.29726802 1021.17655561 346.890625 1021.28125 C344.88611305 1021.30890004 342.88160114 1021.33655364 340.87709141 1021.36436462 C338.77504083 1021.39285754 336.67297419 1021.4194802 334.57089233 1021.44555664 C327.95989079 1021.52790294 321.34906695 1021.62295791 314.7382412 1021.71824646 C313.26942303 1021.73941685 311.80060309 1021.76046379 310.33178139 1021.78138733 C298.44838149 1021.95124428 286.56804895 1022.18824329 274.6875 1022.5 C262.72855814 1022.81355669 250.77026084 1023.0636413 238.80859375 1023.25 C238.14280241 1023.26047867 237.47701107 1023.27095734 236.79104424 1023.28175354 C229.51140619 1023.39631193 222.23173458 1023.50568393 214.9519043 1023.60742188 C204.47108482 1023.76218264 194.00907958 1023.9344605 183.54296875 1024.53125 C174.16732231 1025.06499091 164.82203492 1025.08388656 155.43359375 1025.01831055 C137.45905662 1024.87018947 137.45905662 1024.87018947 119.5 1025.5 C107.59531413 1026.19154882 95.68883688 1026.03254624 83.76937866 1025.98974609 C70.83260383 1025.94741217 57.96697394 1026.15790131 45.04296875 1026.7734375 C31.65970598 1027.40990047 18.36021734 1026.81323062 5 1026 C3.8427815 1017.29458787 3.87162238 1008.61374652 3.90234375 999.85107422 C3.9042671 998.23245286 3.90572893 996.6138309 3.9067688 994.99520874 C3.90992147 991.51309982 3.91618113 988.03101541 3.92483521 984.54891586 C3.93855412 978.95832266 3.94429806 973.3677372 3.94897461 967.77713013 C3.96188942 953.83403293 3.98594743 939.890957 4.01037598 925.94787598 C4.03398985 912.35848363 4.05244919 898.76909702 4.0625 885.1796875 C4.0632893 884.2157907 4.0640786 883.2518939 4.06489182 882.25878811 C4.08539723 855.19213708 3.90793267 828.13786295 3.46421051 801.07499075 C3.06766243 776.84005357 2.91455289 752.61320394 2.9375 728.375 C2.9385631 727.12877357 2.9385631 727.12877357 2.93964767 725.85737085 C2.95077182 713.23822954 2.97416646 700.61911843 3 688 C3.02752581 674.50000478 3.05084993 661.00001921 3.0625 647.5 C3.06368395 646.26616196 3.06368395 646.26616196 3.06489182 645.00739789 C3.08342683 624.20521866 2.9568554 603.41924339 2.5 582.62109375 C1.98425374 559.06962172 1.91752675 535.52867581 1.9375 511.97265625 C1.93820873 511.04411064 1.93891747 510.11556502 1.93964767 509.15888166 C1.9509533 494.79340622 1.97435116 480.42795588 2 466.0625 C2.02731396 450.74088946 2.05072821 435.41928746 2.0625 420.09765625 C2.06368395 418.7149938 2.06368395 418.7149938 2.06489182 417.30439878 C2.08376384 393.62440362 1.94560502 369.96716859 1.35791016 346.29324341 C0.88821754 327.1928969 0.92393469 308.10126936 0.98168945 288.99627686 C1.01712212 276.95717909 1.02678236 264.91805063 1.03125 252.87890625 C1.03168147 251.87360839 1.03168147 251.87360839 1.03212166 250.84800148 C1.05024949 203.85659564 0.7498131 156.86556676 0.5 109.875 C0.49398521 108.74203538 0.48797043 107.60907077 0.48177338 106.44177389 C0.43983332 98.54378264 0.39769849 90.64579244 0.35546875 82.74780273 C0.3496664 81.66156376 0.34386404 80.57532479 0.33788586 79.45616949 C0.28238762 69.07149968 0.22668025 58.68683151 0.16867828 48.30217534 C0.14769413 44.53730476 0.12702772 40.77243246 0.10640144 37.0075599 C0.09688899 35.28747662 0.0872215 33.5673942 0.07737541 31.84731281 C0.01662421 21.2313808 -0.01200321 10.61612151 0 0 Z " fill="#FFFFFF" transform="translate(682,25)"/>
</svg>
