<?xml version="1.0" encoding="UTF-8"?>
<svg version="1.1" xmlns="http://www.w3.org/2000/svg" width="1081" height="1080">
<path d="M0 0 C3.50946849 0.66109476 6.48577786 1.51715133 9.73828125 3.00390625 C10.63272949 3.4107666 11.52717773 3.81762695 12.44873047 4.23681641 C13.39377441 4.67429199 14.33881836 5.11176758 15.3125 5.5625 C16.2936377 6.01286621 17.27477539 6.46323242 18.28564453 6.92724609 C27.23331423 11.05862484 36.03890231 15.44068873 44.8125 19.92675781 C53.77933041 24.50196708 62.84884783 28.80449851 72 33 C79.60232366 36.48558657 87.16614363 40.00650167 94.62231445 43.79443359 C101.26710608 47.16126343 107.97672259 50.39220331 114.6875 53.625 C115.30706573 53.92353882 115.92663147 54.22207764 116.56497192 54.52966309 C119.11338673 55.75748369 121.66194505 56.98500539 124.21076965 58.2119751 C129.23506274 60.63066437 134.25669178 63.0548313 139.27740479 65.48094177 C144.70383973 68.10305488 150.13172471 70.72215255 155.56005859 73.34033203 C157.78987755 74.41615242 160.01938911 75.49261025 162.24853516 76.56982422 C174.30799919 82.39647509 186.40391314 88.13351049 198.5625 93.75 C206.33679393 97.34155385 214.08219907 100.96246096 221.71728516 104.84179688 C228.41293084 108.23579058 235.17549993 111.49092554 241.9375 114.75 C242.8787825 115.20377518 242.8787825 115.20377518 243.83908081 115.66671753 C253.4027999 120.27599512 262.97274205 124.87235556 272.546875 129.45996094 C278.0673697 132.10650989 283.58225386 134.76420235 289.08984375 137.4375 C301.94175148 143.67197844 314.8160438 149.83668182 327.82397461 155.7421875 C334.22089854 158.6604361 340.5237412 161.73288662 346.80352783 164.89259338 C354.18752637 168.60650444 361.62202673 172.21341083 369.0625 175.8125 C370.51661032 176.51674623 371.97071175 177.22101085 373.42480469 177.92529297 C382.42608568 182.2826775 391.43828404 186.61666505 400.46582031 190.91943359 C405.632766 193.38359863 410.79107549 195.86455013 415.94140625 198.36328125 C428.84373499 204.62176782 441.76461932 210.81341045 454.82348633 216.74194336 C461.22055818 219.66030588 467.52357825 222.73280463 473.80352783 225.89259338 C481.18752637 229.60650444 488.62202673 233.21341083 496.0625 236.8125 C497.51661032 237.51674623 498.97071175 238.22101085 500.42480469 238.92529297 C509.42608568 243.2826775 518.43828404 247.61666505 527.46582031 251.91943359 C532.632766 254.38359863 537.79107549 256.86455013 542.94140625 259.36328125 C555.84373499 265.62176782 568.76461932 271.81341045 581.82348633 277.74194336 C588.22055818 280.66030588 594.52357825 283.73280463 600.80352783 286.89259338 C608.18752637 290.60650444 615.62202673 294.21341083 623.0625 297.8125 C624.51661032 298.51674623 625.97071175 299.22101085 627.42480469 299.92529297 C636.42461079 304.28196353 645.43523539 308.61545119 654.46142578 312.91723633 C659.653534 315.39325237 664.83696235 317.88636513 670.01171875 320.3984375 C682.45774739 326.43726189 694.91376331 332.4294011 707.53491211 338.09765625 C713.66145532 340.86509614 719.68033928 343.81210975 725.68438721 346.83302307 C733.44095272 350.73408584 741.24996093 354.52510803 749.0625 358.3125 C749.82379211 358.68194733 750.58508423 359.05139465 751.3694458 359.43203735 C761.41982814 364.30937867 771.48143924 369.16215575 781.56518555 373.97021484 C788.55548698 377.30419591 795.53278766 380.6647146 802.50595093 384.03436279 C806.21768629 385.82789853 809.93004919 387.62013519 813.64228821 389.41262817 C816.52007255 390.80224594 819.39767918 392.1922284 822.27490234 393.58300781 C831.89608747 398.23142877 841.52221097 402.86582122 851.21875 407.35546875 C851.83145248 407.63918839 852.44415497 407.92290802 853.07542419 408.21522522 C856.01829615 409.57664627 858.96304511 410.93369636 861.91040039 412.28540039 C868.62634809 415.37926394 875.26289486 418.6012912 881.8671875 421.92442322 C889.22989067 425.6278343 896.64340015 429.22374953 904.0625 432.8125 C905.51661032 433.51674623 906.97071175 434.22101085 908.42480469 434.92529297 C917.42608568 439.2826775 926.43828404 443.61666505 935.46582031 447.91943359 C940.632766 450.38359863 945.79107549 452.86455013 950.94140625 455.36328125 C953.39829823 456.5549749 955.85532941 457.74638094 958.3125 458.9375 C958.91848022 459.23131561 959.52446045 459.52513123 960.14880371 459.82785034 C970.30262034 464.74615817 980.51698962 469.51698427 990.7902832 474.18139648 C991.79792725 474.64102783 992.80557129 475.10065918 993.84375 475.57421875 C994.72224609 475.97213623 995.60074219 476.37005371 996.50585938 476.7800293 C999.11845498 478.05794044 1001.58975724 479.36930324 1004 481 C1004 481.66 1004 482.32 1004 483 C1002.33300781 484.24243164 1002.33300781 484.24243164 999.953125 485.66015625 C999.05899902 486.19817871 998.16487305 486.73620117 997.24365234 487.29052734 C996.25574707 487.87527832 995.2678418 488.4600293 994.25 489.0625 C992.14311427 490.32663144 990.03634887 491.59096345 987.9296875 492.85546875 C986.8065918 493.52626465 985.68349609 494.19706055 984.52636719 494.88818359 C979.05810587 498.15772989 973.6170435 501.47219092 968.17321777 504.78219604 C966.42768238 505.84298413 964.68128642 506.90233909 962.93457031 507.96118164 C956.36387393 511.94642684 949.81090116 515.95913216 943.26855469 519.99072266 C937.67108125 523.43165531 932.05466112 526.84133786 926.4375 530.25 C925.83227509 530.61750366 925.22705017 530.98500732 924.60348511 531.36364746 C916.93824475 536.01779894 909.26031672 540.64987584 901.5625 545.25 C893.82513843 549.87483923 886.15440066 554.60150245 878.49780273 559.35864258 C872.9846059 562.78106988 867.4474056 566.15674822 861.875 569.48168945 C856.12656319 572.91452611 850.40593094 576.39244845 844.6875 579.875 C843.70668457 580.47223877 842.72586914 581.06947754 841.71533203 581.68481445 C837.06352819 584.5190388 832.4141752 587.35718137 827.76953125 590.203125 C826.96104736 590.69828613 826.15256348 591.19344727 825.31958008 591.70361328 C823.82792653 592.61766517 822.33683151 593.53262947 820.84643555 594.44873047 C817.63494034 596.41702894 814.41265839 598.34097134 811.125 600.1796875 C808.01887315 601.81106368 808.01887315 601.81106368 806 604 C803.95613818 605.21929954 801.88960251 606.4007308 799.8125 607.5625 C788.80187939 613.77720601 778.02014489 620.33839264 767.31713867 627.06689453 C761.23019741 630.88150376 755.0745077 634.57615228 748.90869141 638.26147461 C739.54736366 643.8596726 730.2358081 649.53879613 720.92333984 655.21777344 C716.11719121 658.14786238 711.30848802 661.07375235 706.5 664 C700.80824636 667.46427348 695.11666105 670.92882244 689.42578125 674.39453125 C678.3556446 681.13556418 667.28003958 687.86752782 656.20010376 694.59243774 C647.37739486 699.94744992 638.55905794 705.30959026 629.74462891 710.67822266 C624.43387371 713.91210481 619.12062251 717.14182989 613.8046875 720.3671875 C613.18752869 720.7416803 612.57036987 721.1161731 611.93450928 721.50201416 C608.93258494 723.32350883 605.93039072 725.14455603 602.92773438 726.96484375 C597.41823005 730.30725491 591.91769389 733.6629206 586.43359375 737.046875 C580.21732465 740.87796221 573.95748057 744.63268722 567.6875 748.375 C560.81809598 752.48541839 553.95840964 756.6039476 547.1875 760.875 C536.44516729 767.64837032 525.55537811 774.18332432 514.69335938 780.76220703 C509.37188761 783.98575727 504.05429723 787.21569788 498.73654175 790.44537354 C495.83102781 792.20993341 492.9252753 793.97410034 490.01953125 795.73828125 C489.154739 796.26334259 489.154739 796.26334259 488.2724762 796.79901123 C484.12326536 799.31817366 479.97377774 801.83687985 475.82421875 804.35546875 C450.52702523 819.67266255 450.52702523 819.67266255 425.3125 835.125 C419.96716151 838.42528815 414.57949136 841.65181767 409.1875 844.875 C403.08592293 848.52329517 397.0152269 852.21098927 391 856 C384.3578699 860.18189583 377.64457158 864.23541915 370.9074707 868.26220703 C361.54654644 873.86015492 352.23540282 879.53904327 342.92333984 885.21777344 C338.11719124 888.14786237 333.30850414 891.07377889 328.5 894 C322.6552703 897.55698831 316.81105085 901.11480465 310.96875 904.67578125 C294.26750128 914.85287103 294.26750128 914.85287103 286.6875 919.375 C278.70980714 924.13630418 270.8159809 929.03396956 262.90942383 933.91210938 C255.27871788 938.61402997 247.6116678 943.24963191 239.9152832 947.84301758 C234.90649511 950.83847429 229.93855208 953.8902429 225 957 C218.35779926 961.18178579 211.64457439 965.23541747 204.9074707 969.26220703 C195.54654644 974.86015492 186.23540282 980.53904327 176.92333984 986.21777344 C172.11719121 989.14786238 167.30848802 992.07375235 162.5 995 C156.80824636 998.46427348 151.11666105 1001.92882244 145.42578125 1005.39453125 C134.95508079 1011.77054438 124.47982934 1018.13900557 114 1024.5 C105.18530207 1029.85055359 96.37168024 1035.20286458 87.5625 1040.5625 C86.62325684 1041.13371582 85.68401367 1041.70493164 84.71630859 1042.29345703 C80.71075949 1044.7315861 76.70874635 1047.17469252 72.72265625 1049.64453125 C72.10253662 1050.02859131 71.48241699 1050.41265137 70.84350586 1050.80834961 C69.27178199 1051.78389466 67.70218591 1052.76286571 66.1328125 1053.7421875 C64 1055 64 1055 63 1055 C61.6437674 1038.8831438 60.51252228 1022.77056862 59.6328125 1006.62109375 C59.51237368 1004.45463848 59.39161187 1002.28820114 59.27055359 1000.1217804 C59.01664084 995.57056755 58.7643033 991.01927173 58.51333618 986.46789551 C57.85667013 974.56539348 57.18859391 962.66352944 56.51953125 950.76171875 C56.45366255 949.58877888 56.38779385 948.415839 56.31992912 947.2073555 C55.22419943 927.71667768 54.05838481 908.2316194 52.8125 888.75 C51.60236381 869.81652184 50.46740373 850.88167639 49.4375 831.9375 C48.55578567 815.72363941 47.61608177 799.51612621 46.5625 783.3125 C45.39247104 765.27346525 44.26755976 747.232159 43.1875 729.1875 C43.12723003 728.18165171 43.12723003 728.18165171 43.06574249 727.15548325 C41.83946281 706.67768118 40.66713533 686.19697837 39.515625 665.71484375 C39.38442908 663.38378374 39.2532289 661.05272397 39.12202454 658.72166443 C38.5374646 648.33001014 37.95444897 637.93827714 37.37748909 627.54619789 C36.11918314 604.90890048 34.78657037 582.280957 33.24540329 559.66103935 C32.12052914 543.13469501 31.16037688 526.60426455 30.29266357 510.06262207 C29.88522221 502.30037335 29.46525278 494.53879744 29.04296875 486.77734375 C29.00028618 485.99226566 28.95760361 485.20718758 28.91362762 484.39831924 C27.99285332 467.50969472 26.94969921 450.62943634 25.875 433.75 C25.83225197 433.07851048 25.78950394 432.40702095 25.74546051 431.71518326 C25.65982554 430.37011226 25.57418815 429.02504142 25.48854828 427.67997074 C24.57003399 413.24799268 23.68291933 398.81699364 22.9375 384.375 C22.32829878 372.57247368 21.60552082 360.78180114 20.81329346 348.99014282 C19.40737438 328.06382347 18.2061718 307.12940988 17.0625 286.1875 C15.7361255 261.9034492 14.33008701 237.62649198 12.81100082 213.35372925 C11.45530705 191.69117407 10.18726623 170.02566479 9.03881836 148.35107422 C8.47341945 137.79152182 7.8182815 127.24525758 7.0390625 116.69921875 C6.25129958 105.99451233 5.58810733 95.28744699 5 84.5703125 C4.95880665 83.81980181 4.9176133 83.06929111 4.87517166 82.29603767 C4.58023257 76.90586439 4.28986079 71.51544832 4 66.125 C3.66909667 59.98163756 3.33622165 53.83838629 3 47.6953125 C2.95941467 46.95266396 2.91882935 46.21001541 2.87701416 45.44486237 C2.04529458 30.28776653 1.05454329 15.14316542 0 0 Z " fill="#FFFFFF" transform="translate(38,13)"/>
</svg>
