<?xml version="1.0" encoding="UTF-8"?>
<svg version="1.1" xmlns="http://www.w3.org/2000/svg" viewBox="0 0 1080 1081">
<path d="M0 0 C0.83341856 0.00005035 1.66683712 0.00010071 2.52551079 0.00015259 C5.33249343 0.00383278 8.1391337 0.02301916 10.94604492 0.04296875 C12.95872364 0.05057416 14.97140379 0.05780777 16.98408508 0.06469727 C44.45999509 0.18917353 71.93267355 0.77499968 99.40307617 1.30334473 C108.20635693 1.47260576 117.00971357 1.63655709 125.81323242 1.79296875 C127.04899899 1.81511444 128.28476555 1.83726013 129.55797958 1.8600769 C151.24549112 2.23975798 172.92426606 2.30926156 194.61442566 2.19360352 C207.08327759 2.13941322 219.46453398 2.38038888 231.91147423 3.11841965 C236.29364906 3.36209664 240.67962742 3.45695632 245.06713867 3.546875 C245.97107361 3.5676561 246.87500854 3.58843719 247.80633545 3.60984802 C250.59634513 3.6734255 253.386418 3.73329928 256.17651367 3.79296875 C258.10881097 3.83633823 260.04110269 3.87995701 261.97338867 3.92382812 C266.62437145 4.02889811 271.27541524 4.13065564 275.92651367 4.23046875 C277.15804064 6.6935227 277.11684417 8.4094324 277.20776367 11.16796875 C277.24450195 12.26302734 277.28124023 13.35808594 277.3190918 14.48632812 C277.35454102 15.72189453 277.38999023 16.95746094 277.42651367 18.23046875 C277.46711914 19.53306641 277.50772461 20.83566406 277.54956055 22.17773438 C277.84374321 32.10002245 278.01678064 42.02397479 278.17651367 51.94921875 C278.207995 53.88692139 278.207995 53.88692139 278.2401123 55.86376953 C278.34554494 62.42862675 278.44431394 68.99350161 278.53393555 75.55859375 C278.57096091 78.02213668 278.60806688 80.4856784 278.64526367 82.94921875 C278.65879883 84.08355347 278.67233398 85.21788818 278.6862793 86.38659668 C278.75172347 90.53239088 278.82646943 94.54583982 279.42651367 98.65209961 C280.2207917 104.33653961 280.14571146 110.03253888 280.20776367 115.765625 C280.23590565 117.76948641 280.26405229 119.77334777 280.29245758 121.77720547 C280.34090074 125.28241284 280.3834342 128.78769207 280.42651367 132.29296875 C280.47797227 136.45304099 280.53072671 140.61307967 280.58947754 144.77305603 C280.62557429 147.35647145 280.65811913 149.93993998 280.68640137 152.52345276 C280.78609791 159.66553893 281.14671585 166.73888335 281.69592285 173.8598175 C282.0528094 179.07659106 282.13849106 184.2883432 282.20776367 189.515625 C282.2261731 190.61917831 282.24458252 191.72273163 282.2635498 192.85972595 C282.34098051 197.50706863 282.40956343 202.15453054 282.47875977 206.80200195 C282.53107111 210.2274354 282.58807248 213.65277008 282.64526367 217.078125 C282.65883911 218.10454605 282.67241455 219.1309671 282.68640137 220.18849182 C282.77366039 225.38153387 282.99968749 230.526262 283.42651367 235.703125 C283.95023984 242.07946731 284.12663422 248.42477757 284.20776367 254.8203125 C284.2261731 255.96730118 284.24458252 257.11428986 284.2635498 258.29603577 C284.32160889 261.91996755 284.37470383 265.54394259 284.42651367 269.16796875 C284.49495057 273.9479985 284.56860908 278.72790823 284.64526367 283.5078125 C284.65883911 284.57595688 284.67241455 285.64410126 284.68640137 286.74461365 C284.77496723 292.24426049 285.00685544 297.69965912 285.42651367 303.18457031 C285.94657874 310.02267779 286.1263442 316.83174456 286.20776367 323.6875 C286.2261731 324.91474289 286.24458252 326.14198578 286.2635498 327.40641785 C286.32160135 331.28522531 286.37468204 335.16407352 286.42651367 339.04296875 C286.49508854 344.15371943 286.56877973 349.26436224 286.64526367 354.375 C286.65883911 355.51201859 286.67241455 356.64903717 286.68640137 357.82051086 C286.77735814 363.885547 287.01418211 369.91985371 287.4128418 375.97192383 C288.08864323 386.51182149 288.21297369 397.060699 288.37207031 407.61880112 C288.42772727 411.30298992 288.48807565 414.9870772 288.54956055 418.6711731 C288.70117582 427.80855379 288.84545366 436.9460468 288.98901367 446.08355713 C289.1110566 453.83983828 289.23637347 461.59605245 289.36621094 469.35220718 C289.42536991 472.96530181 289.47973506 476.57844798 289.53393555 480.19161987 C289.57079832 482.42055666 289.60789539 484.6494896 289.64526367 486.87841797 C289.65879883 487.86879562 289.67233398 488.85917328 289.6862793 489.87956238 C289.78713425 495.54498622 290.14796023 501.12852329 290.70152283 506.76731682 C290.9791983 509.80724887 291.07850769 512.82753152 291.1159668 515.87939453 C291.13268433 517.05656036 291.14940186 518.2337262 291.16662598 519.44656372 C291.18020142 520.67720551 291.19377686 521.90784729 291.20776367 523.17578125 C291.2358825 525.14863683 291.26400666 527.12149236 291.29245758 529.09434319 C291.35056219 533.21377322 291.40138587 537.33329896 291.45257568 541.45281982 C291.49530462 544.87800751 291.53981555 548.30314616 291.58947754 551.72824097 C291.6262152 554.28671391 291.65863386 556.84525309 291.68640137 559.40383911 C291.7031189 560.54948334 291.71983643 561.69512756 291.73706055 562.87548828 C291.74958862 563.88821808 291.7621167 564.90094788 291.77502441 565.94436646 C291.67208776 568.1956446 291.67208776 568.1956446 292.92651367 569.23046875 C293.04488093 571.15641665 293.09390878 573.08665751 293.1159668 575.01611328 C293.13268433 576.25475128 293.14940186 577.49338928 293.16662598 578.76956177 C293.17330795 579.43616947 293.17998993 580.10277718 293.18687439 580.78958511 C293.2078835 582.87517663 293.23491409 584.96061224 293.2635498 587.04611206 C293.32334542 591.48250394 293.37535141 595.9189701 293.42651367 600.35546875 C293.48587573 605.47631485 293.54845889 610.59708671 293.61839294 615.71780014 C293.64479445 617.76440809 293.66572299 619.81102395 293.68640137 621.85769653 C293.7031189 623.1152475 293.71983643 624.37279846 293.73706055 625.66845703 C293.74958862 626.76908478 293.7621167 627.86971252 293.77502441 629.00369263 C293.87759912 632.28383075 293.87759912 632.28383075 294.42651367 635.71644592 C294.92121952 639.1932612 295.07755133 642.50728109 295.1159668 646.0168457 C295.13268433 647.32543045 295.14940186 648.6340152 295.16662598 649.98225403 C295.17330795 650.67221781 295.17998993 651.36218159 295.18687439 652.07305336 C295.2081317 654.25655341 295.23513543 656.43991883 295.2635498 658.62333679 C295.32291834 663.26316064 295.37518873 667.9030499 295.42651367 672.54296875 C295.48608213 677.91473227 295.54866642 683.28642949 295.61839294 688.65807152 C295.64463532 690.79263981 295.66564956 692.92721624 295.68640137 695.06184387 C295.76672373 701.39460931 295.99982231 707.60053531 296.71621704 713.89164734 C297.10763657 718.24483351 296.95516272 722.59895298 296.89135742 726.96484375 C296.80566923 739.40591685 297.17756123 751.8145093 297.61791992 764.24609375 C297.6693622 765.7118409 297.6693622 765.7118409 297.72184372 767.2071991 C298.00828233 775.34288474 298.30463245 783.47820226 298.60449219 791.61340332 C298.83004492 797.73449533 299.05090482 803.85571689 299.26484489 809.97722626 C299.36598968 812.81690158 299.47410426 815.65625681 299.58241272 818.4956665 C299.64353265 820.23049628 299.70429743 821.96533862 299.76464844 823.70019531 C299.81211967 824.86891678 299.81211967 824.86891678 299.86054993 826.06124878 C299.9979472 830.25174971 299.85397265 834.1337035 298.92651367 838.23046875 C297.001351 840.15563142 293.40201232 839.40451845 290.77636719 839.41992188 C290.02840881 839.42821518 289.28045044 839.43650848 288.50982666 839.4450531 C286.88051567 839.46249121 285.25117907 839.47764763 283.62182808 839.49082947 C281.04615226 839.51179418 278.47060493 839.53882216 275.89500427 839.56750488 C270.42638971 839.62730538 264.95771588 839.67940521 259.48901367 839.73046875 C253.1577312 839.78962796 246.82651187 839.85189353 240.49534416 839.92234802 C237.95269145 839.94898543 235.41003266 839.96976352 232.86732483 839.99035645 C231.31356503 840.00695642 229.7598081 840.02382799 228.20605469 840.04101562 C227.49480942 840.04520004 226.78356415 840.04938446 226.05076599 840.05369568 C222.36463174 840.05393694 222.36463174 840.05393694 218.92651367 841.23046875 C217.51971298 841.331795 216.10830491 841.3725536 214.69789124 841.38195801 C213.81072418 841.39030167 212.92355713 841.39864532 212.00950623 841.40724182 C211.03344925 841.41142624 210.05739227 841.41561066 209.05175781 841.41992188 C208.02550293 841.42821518 206.99924805 841.43650848 205.94189453 841.4450531 C203.70638148 841.46248557 201.47084983 841.47764356 199.23530769 841.49082947 C195.69095719 841.51184154 192.14669832 841.5388715 188.60240173 841.56750488 C181.06464114 841.62728654 173.52683704 841.67931247 165.98901367 841.73046875 C157.28455532 841.78981417 148.58014081 841.85236143 139.87576103 841.92234802 C136.39562764 841.94877111 132.9154896 841.96968566 129.43531799 841.99035645 C127.27881672 842.00697893 125.12231735 842.02385243 122.96582031 842.04101562 C122.00798141 842.04520004 121.05014252 842.04938446 120.0632782 842.05369568 C115.48609524 842.09554614 110.98361331 842.28247074 106.42750549 842.73422241 C100.89672962 843.27901135 95.42575397 843.37158238 89.87133789 843.35986328 C88.30588982 843.36249176 88.30588982 843.36249176 86.70881653 843.36517334 C83.29959392 843.36953354 79.89042419 843.36667676 76.48120117 843.36328125 C74.10035187 843.36395546 71.71950263 843.36492646 69.33865356 843.36618042 C64.37118875 843.36764903 59.403742 843.36552788 54.4362793 843.36083984 C48.05480977 843.35511187 41.67338202 843.35844611 35.29191399 843.36441231 C30.38678671 843.36801406 25.48166947 843.36688167 20.5765419 843.36428452 C18.22169108 843.36361578 15.86683936 843.36444182 13.51198959 843.36676407 C10.23721624 843.36928759 6.96251229 843.36545571 3.68774414 843.35986328 C2.21826576 843.36289963 2.21826576 843.36289963 0.71910095 843.36599731 C-0.16669144 843.36317749 -1.05248383 843.36035767 -1.96511841 843.35745239 C-3.1258874 843.35688685 -3.1258874 843.35688685 -4.31010628 843.35630989 C-6.07348633 843.23046875 -6.07348633 843.23046875 -7.07348633 842.23046875 C-7.17444237 840.71110316 -7.20562847 839.18705333 -7.20935822 837.66434193 C-7.21421596 836.67125013 -7.21907371 835.67815834 -7.22407866 834.65497285 C-7.22437464 833.55073321 -7.22467063 832.44649356 -7.22497559 831.30879211 C-7.2313242 829.56435807 -7.2313242 829.56435807 -7.23780107 827.78468293 C-7.24861382 824.54171521 -7.25493563 821.29877326 -7.25943589 818.05579174 C-7.26536885 814.56333741 -7.27704123 811.07090198 -7.28807068 807.57846069 C-7.30645398 801.51945301 -7.32128687 795.46044492 -7.33384705 789.4014225 C-7.3521284 780.62575214 -7.37679617 771.85010854 -7.40322095 763.07445934 C-7.44606485 748.81779605 -7.48515883 734.5611253 -7.52124023 720.30444336 C-7.52340304 719.45037477 -7.52556584 718.59630618 -7.52779418 717.71635672 C-7.54092253 712.52441325 -7.55396361 707.33246957 -7.56697559 702.14052582 C-7.5864336 694.37745634 -7.60598245 686.6143871 -7.62573242 678.85131836 C-7.62789129 678.002229 -7.63005016 677.15313963 -7.63227445 676.27832029 C-7.66846269 662.09203507 -7.70843134 647.90576284 -7.75103521 633.71949548 C-7.77711425 624.97418712 -7.79979216 616.22888258 -7.81801879 607.48355427 C-7.83074799 601.47877402 -7.84689684 595.47400913 -7.86566794 589.46924476 C-7.87635801 586.01037292 -7.88550369 582.55151573 -7.89036369 579.09263039 C-7.87433102 561.60291319 -7.87433102 561.60291319 -8.84988976 544.15013027 C-9.24824762 538.94848472 -9.20435141 533.74776607 -9.18701172 528.53369141 C-9.18715775 527.351465 -9.18730377 526.16923859 -9.18745422 524.95118713 C-9.18676549 521.09894889 -9.17902251 517.24676089 -9.17114258 513.39453125 C-9.16871363 510.70169095 -9.16780326 508.00885069 -9.16685486 505.31600952 C-9.16376717 498.98763397 -9.1555889 492.65927603 -9.14550537 486.33090818 C-9.13426392 479.11669664 -9.12881369 471.90248418 -9.12380993 464.68826604 C-9.11340367 449.86899134 -9.09585471 435.04973035 -9.07348633 420.23046875 C-10.0714624 420.8322998 -11.06943848 421.43413086 -12.09765625 422.05419922 C-13.43722411 422.86040432 -14.77682552 423.66655368 -16.11645508 424.47265625 C-16.77061401 424.86735107 -17.42477295 425.2620459 -18.09875488 425.66870117 C-22.48744302 428.30759783 -26.91642111 430.85592598 -31.38598633 433.35546875 C-36.42291355 436.20613105 -41.12535964 439.30521073 -45.81567383 442.6875 C-53.92665089 448.23046875 -53.92665089 448.23046875 -58.07348633 448.23046875 C-58.07348633 448.89046875 -58.07348633 449.55046875 -58.07348633 450.23046875 C-60.72087549 451.69109725 -61.96796967 452.23046875 -65.07348633 452.23046875 C-65.07348633 452.89046875 -65.07348633 453.55046875 -65.07348633 454.23046875 C-65.66516602 454.55660156 -66.2568457 454.88273437 -66.86645508 455.21875 C-70.28484497 457.10918095 -73.6859275 458.99133671 -77.01098633 461.04296875 C-79.07348633 462.23046875 -79.07348633 462.23046875 -81.07348633 462.23046875 C-81.40348633 463.22046875 -81.73348633 464.21046875 -82.07348633 465.23046875 C-84.15551758 466.58984375 -84.15551758 466.58984375 -86.88598633 467.98046875 C-95.19540094 472.32992796 -103.32552986 476.9391814 -111.07348633 482.23046875 C-114.07120815 484.15757564 -116.55509425 485.57891466 -120.07348633 486.23046875 C-120.07348633 486.89046875 -120.07348633 487.55046875 -120.07348633 488.23046875 C-131.59512642 494.74983094 -131.59512642 494.74983094 -137.07348633 496.23046875 C-137.07348633 496.89046875 -137.07348633 497.55046875 -137.07348633 498.23046875 C-140.07348633 500.23046875 -140.07348633 500.23046875 -143.07348633 500.23046875 C-143.07348633 500.89046875 -143.07348633 501.55046875 -143.07348633 502.23046875 C-148.69848633 505.23046875 -148.69848633 505.23046875 -152.07348633 505.23046875 C-152.07348633 505.89046875 -152.07348633 506.55046875 -152.07348633 507.23046875 C-153.06348633 507.23046875 -154.05348633 507.23046875 -155.07348633 507.23046875 C-155.07348633 507.89046875 -155.07348633 508.55046875 -155.07348633 509.23046875 C-158.68602253 511.07874309 -162.28247443 512.7809642 -166.07348633 514.23046875 C-166.07348633 514.89046875 -166.07348633 515.55046875 -166.07348633 516.23046875 C-167.320842 516.88139465 -168.57150465 517.52598544 -169.82348633 518.16796875 C-170.86762695 518.70744141 -170.86762695 518.70744141 -171.93286133 519.2578125 C-173.97573066 520.18605057 -175.88464009 520.76213453 -178.07348633 521.23046875 C-178.07348633 521.89046875 -178.07348633 522.55046875 -178.07348633 523.23046875 C-178.79793945 523.6171875 -179.52239258 524.00390625 -180.26879883 524.40234375 C-185.94328863 527.45900226 -191.47964476 530.51711837 -196.63598633 534.41015625 C-202.44535498 538.74028751 -208.91448635 542.7163814 -216.07348633 544.23046875 C-216.07348633 544.89046875 -216.07348633 545.55046875 -216.07348633 546.23046875 C-219.07348633 548.23046875 -219.07348633 548.23046875 -222.07348633 548.23046875 C-222.07348633 548.89046875 -222.07348633 549.55046875 -222.07348633 550.23046875 C-223.528862 551.06895679 -224.98789006 551.90110809 -226.44848633 552.73046875 C-227.2605957 553.19453125 -228.07270508 553.65859375 -228.90942383 554.13671875 C-231.07348633 555.23046875 -231.07348633 555.23046875 -233.07348633 555.23046875 C-233.07348633 555.89046875 -233.07348633 556.55046875 -233.07348633 557.23046875 C-233.72833008 557.58238281 -234.38317383 557.93429687 -235.05786133 558.296875 C-246.45227349 564.46080135 -257.77385616 570.88875189 -268.67114258 577.90234375 C-271.07348633 579.23046875 -271.07348633 579.23046875 -274.07348633 579.23046875 C-274.40348633 580.22046875 -274.73348633 581.21046875 -275.07348633 582.23046875 C-276.53442383 583.40625 -276.53442383 583.40625 -278.44848633 584.54296875 C-279.17422852 584.97609375 -279.8999707 585.40921875 -280.64770508 585.85546875 C-283.16865166 587.2844111 -285.70996335 588.66847906 -288.26098633 590.04296875 C-295.99137567 594.21695308 -303.42888105 598.86286437 -310.80004883 603.63671875 C-311.41968506 604.03785889 -312.03932129 604.43899902 -312.67773438 604.85229492 C-313.86367246 605.62254663 -315.04757681 606.39594265 -316.22900391 607.1730957 C-325.52722946 613.23046875 -325.52722946 613.23046875 -329.07348633 613.23046875 C-329.07348633 613.89046875 -329.07348633 614.55046875 -329.07348633 615.23046875 C-331.72087549 616.69109725 -332.96796967 617.23046875 -336.07348633 617.23046875 C-336.07348633 617.89046875 -336.07348633 618.55046875 -336.07348633 619.23046875 C-338.36222806 620.56905399 -340.65418289 621.90147889 -342.94848633 623.23046875 C-343.92495117 623.8028125 -343.92495117 623.8028125 -344.92114258 624.38671875 C-349.84692383 627.23046875 -349.84692383 627.23046875 -352.07348633 627.23046875 C-352.40348633 628.22046875 -352.73348633 629.21046875 -353.07348633 630.23046875 C-355.01367187 631.39746094 -355.01367187 631.39746094 -357.52270508 632.52734375 C-363.84089312 635.52733053 -369.54300418 639.2711021 -375.3684082 643.12109375 C-376.1644043 643.63671875 -376.96040039 644.15234375 -377.78051758 644.68359375 C-378.8397644 645.38210449 -378.8397644 645.38210449 -379.92041016 646.09472656 C-382.30049951 647.35021763 -384.4247357 647.82595547 -387.07348633 648.23046875 C-387.40348633 649.22046875 -387.73348633 650.21046875 -388.07348633 651.23046875 C-389.72348633 651.56046875 -391.37348633 651.89046875 -393.07348633 652.23046875 C-393.07348633 652.89046875 -393.07348633 653.55046875 -393.07348633 654.23046875 C-394.50643131 655.07161046 -395.94503038 655.90312562 -397.38598633 656.73046875 C-398.18649414 657.19453125 -398.98700195 657.65859375 -399.81176758 658.13671875 C-402.07348633 659.23046875 -402.07348633 659.23046875 -405.07348633 659.23046875 C-405.07348633 659.89046875 -405.07348633 660.55046875 -405.07348633 661.23046875 C-407.97915767 663.24829607 -410.59018417 664.58541279 -414.07348633 665.23046875 C-414.07348633 665.89046875 -414.07348633 666.55046875 -414.07348633 667.23046875 C-415.22848633 667.78734375 -416.38348633 668.34421875 -417.57348633 668.91796875 C-422.78794769 671.52519943 -427.79232898 674.44253461 -432.38598633 678.04296875 C-434.07348633 679.23046875 -434.07348633 679.23046875 -437.07348633 679.23046875 C-437.07348633 679.89046875 -437.07348633 680.55046875 -437.07348633 681.23046875 C-438.320842 681.88139465 -439.57150465 682.52598544 -440.82348633 683.16796875 C-441.51958008 683.52761719 -442.21567383 683.88726563 -442.93286133 684.2578125 C-444.97573066 685.18605057 -446.88464009 685.76213453 -449.07348633 686.23046875 C-449.07348633 686.89046875 -449.07348633 687.55046875 -449.07348633 688.23046875 C-450.06348633 688.23046875 -451.05348633 688.23046875 -452.07348633 688.23046875 C-452.07348633 688.89046875 -452.07348633 689.55046875 -452.07348633 690.23046875 C-453.28584961 690.81054688 -453.28584961 690.81054688 -454.52270508 691.40234375 C-456.1256543 692.18351563 -456.1256543 692.18351563 -457.76098633 692.98046875 C-458.81672852 693.4909375 -459.8724707 694.00140625 -460.96020508 694.52734375 C-463.99722036 696.18874734 -466.3912161 698.05543571 -469.07348633 700.23046875 C-471.56976816 701.89070038 -474.12764159 703.43896614 -476.69848633 704.98046875 C-477.3662207 705.39167969 -478.03395508 705.80289063 -478.72192383 706.2265625 C-483.71180132 709.23046875 -483.71180132 709.23046875 -487.07348633 709.23046875 C-487.07348633 709.89046875 -487.07348633 710.55046875 -487.07348633 711.23046875 C-488.86181641 712.52734375 -488.86181641 712.52734375 -491.34301758 713.98046875 C-492.23182617 714.50640625 -493.12063477 715.03234375 -494.03637695 715.57421875 C-494.97674805 716.12078125 -495.91711914 716.66734375 -496.88598633 717.23046875 C-498.72610187 718.31334036 -500.56595665 719.39665524 -502.40551758 720.48046875 C-503.22769775 720.96 -504.04987793 721.43953125 -504.89697266 721.93359375 C-506.65439478 722.98075318 -508.37132303 724.09569322 -510.07348633 725.23046875 C-511.06348633 725.23046875 -512.05348633 725.23046875 -513.07348633 725.23046875 C-513.07348633 725.89046875 -513.07348633 726.55046875 -513.07348633 727.23046875 C-514.0731543 727.75833984 -514.0731543 727.75833984 -515.09301758 728.296875 C-520.98271632 731.45177657 -526.64918756 734.81573769 -532.25708008 738.4453125 C-535.1565161 740.2830965 -538.09997562 742.01542451 -541.07348633 743.73046875 C-546.00324504 746.57677937 -550.81866491 749.5652145 -555.60083008 752.65234375 C-562.77398138 757.23046875 -562.77398138 757.23046875 -565.07348633 757.23046875 C-565.07348633 757.89046875 -565.07348633 758.55046875 -565.07348633 759.23046875 C-566.06348633 759.23046875 -567.05348633 759.23046875 -568.07348633 759.23046875 C-568.07348633 759.89046875 -568.07348633 760.55046875 -568.07348633 761.23046875 C-568.73735352 761.55660156 -569.4012207 761.88273438 -570.08520508 762.21875 C-575.66246463 764.97708412 -575.66246463 764.97708412 -581.07348633 768.04296875 C-583.07348633 769.23046875 -583.07348633 769.23046875 -585.07348633 769.23046875 C-585.07348633 769.89046875 -585.07348633 770.55046875 -585.07348633 771.23046875 C-585.79793945 771.6171875 -586.52239258 772.00390625 -587.26879883 772.40234375 C-592.37266284 775.15162516 -597.26350573 777.99109406 -602.07348633 781.23046875 C-604.00609214 782.36385573 -605.94421827 783.48785162 -607.88598633 784.60546875 C-612.49525654 787.25981217 -616.90406389 790.07611345 -621.23364258 793.1640625 C-623.07348633 794.23046875 -623.07348633 794.23046875 -626.07348633 794.23046875 C-626.07348633 794.89046875 -626.07348633 795.55046875 -626.07348633 796.23046875 C-626.79793945 796.6171875 -627.52239258 797.00390625 -628.26879883 797.40234375 C-629.2355957 797.923125 -630.20239258 798.44390625 -631.19848633 798.98046875 C-632.62547852 799.74617187 -632.62547852 799.74617187 -634.08129883 800.52734375 C-636.09494302 801.6734911 -638.0679103 802.89386122 -639.99536133 804.1796875 C-643.89589082 806.77839052 -647.94682695 809.03806305 -652.03833008 811.31835938 C-654.58664747 812.75352287 -657.00530546 814.17737319 -659.31567383 815.9765625 C-661.07348633 817.23046875 -661.07348633 817.23046875 -664.07348633 817.23046875 C-664.07348633 817.89046875 -664.07348633 818.55046875 -664.07348633 819.23046875 C-665.528862 820.06895679 -666.98789006 820.90110809 -668.44848633 821.73046875 C-669.2605957 822.19453125 -670.07270508 822.65859375 -670.90942383 823.13671875 C-673.07348633 824.23046875 -673.07348633 824.23046875 -675.07348633 824.23046875 C-675.07348633 824.89046875 -675.07348633 825.55046875 -675.07348633 826.23046875 C-676.00161133 826.68421875 -676.92973633 827.13796875 -677.88598633 827.60546875 C-681.11270021 829.17263205 -681.11270021 829.17263205 -684.07348633 831.23046875 C-685.06348633 831.23046875 -686.05348633 831.23046875 -687.07348633 831.23046875 C-687.07348633 831.89046875 -687.07348633 832.55046875 -687.07348633 833.23046875 C-688.00161133 833.68421875 -688.92973633 834.13796875 -689.88598633 834.60546875 C-693.11270021 836.17263205 -693.11270021 836.17263205 -696.07348633 838.23046875 C-697.06348633 838.23046875 -698.05348633 838.23046875 -699.07348633 838.23046875 C-699.07348633 838.89046875 -699.07348633 839.55046875 -699.07348633 840.23046875 C-701.44848633 841.29296875 -701.44848633 841.29296875 -704.07348633 842.23046875 C-704.73348633 841.90046875 -705.39348633 841.57046875 -706.07348633 841.23046875 C-707.12432496 837.48115422 -707.24721427 833.7830492 -707.35473633 829.90625 C-707.39211914 828.71322266 -707.42950195 827.52019531 -707.46801758 826.29101562 C-707.53865958 823.78060821 -707.60896902 821.27019141 -707.67895508 818.75976562 C-707.71633789 817.57060547 -707.7537207 816.38144531 -707.79223633 815.15625 C-707.8225293 814.06739502 -707.85282227 812.97854004 -707.8840332 811.85668945 C-707.90404568 809.25126792 -707.90404568 809.25126792 -709.07348633 807.23046875 C-709.21677923 804.9544013 -709.3000439 802.67444893 -709.35473633 800.39453125 C-709.37314575 799.71877045 -709.39155518 799.04300964 -709.41052246 798.34677124 C-709.46930468 796.18309273 -709.52208011 794.0193343 -709.57348633 791.85546875 C-709.6413176 789.01416276 -709.71505709 786.17309688 -709.79223633 783.33203125 C-709.8225293 782.06697754 -709.85282227 780.80192383 -709.8840332 779.49853516 C-710.03755947 776.85020703 -710.39189741 774.75847138 -711.07348633 772.23046875 C-711.20509501 770.6420062 -711.29593989 769.04985174 -711.35473633 767.45703125 C-711.41081055 766.09578125 -711.41081055 766.09578125 -711.46801758 764.70703125 C-711.50282227 763.76601563 -711.53762695 762.825 -711.57348633 761.85546875 C-711.64292973 759.99335681 -711.71575863 758.13136755 -711.79223633 756.26953125 C-711.8225293 755.44662598 -711.85282227 754.6237207 -711.8840332 753.77587891 C-712.02682788 751.2120043 -712.02682788 751.2120043 -712.56201172 748.65039062 C-713.31645457 743.6058868 -713.38742411 738.566491 -713.53833008 733.47265625 C-713.6168872 731.13150306 -713.69567046 728.79035745 -713.7746582 726.44921875 C-713.89388004 722.78296354 -714.01064305 719.11666612 -714.12304688 715.45019531 C-714.2336396 711.89491507 -714.3541733 708.34007281 -714.47583008 704.78515625 C-714.50611801 703.7066037 -714.53640594 702.62805115 -714.56761169 701.51681519 C-714.75032344 696.3297691 -715.15401361 691.3462624 -716.07348633 686.23486328 C-717.19087789 680.01935488 -717.49512709 673.90983721 -717.67114258 667.60546875 C-717.7103331 666.45554443 -717.74952362 665.30562012 -717.78990173 664.12084961 C-717.91274168 660.49092213 -718.02515 656.86078095 -718.13598633 653.23046875 C-718.25169229 649.57165847 -718.36972357 645.9129651 -718.49278259 642.25439453 C-718.56862295 639.98859273 -718.64005408 637.72263801 -718.70655823 635.45654297 C-718.74006882 634.43447754 -718.77357941 633.41241211 -718.80810547 632.359375 C-718.83538223 631.4629126 -718.862659 630.5664502 -718.89076233 629.64282227 C-719.06232418 627.37783338 -719.52034703 625.42484568 -720.07348633 623.23046875 C-720.20197741 621.61115922 -720.28651127 619.98805737 -720.33886719 618.36450195 C-720.37237778 617.39861649 -720.40588837 616.43273102 -720.44041443 615.43757629 C-720.47272659 614.39598862 -720.50503876 613.35440094 -720.53833008 612.28125 C-720.61696944 610.04752123 -720.69575027 607.81379743 -720.7746582 605.58007812 C-720.89328176 602.08104866 -721.00972329 598.58196887 -721.12304688 595.08276367 C-721.66911194 578.2269331 -721.66911194 578.2269331 -723.33920288 561.45753479 C-724.54181414 552.17835835 -724.76182746 542.822213 -725.13598633 533.48046875 C-725.25210543 530.65015627 -725.37012859 527.81996632 -725.49278259 524.9899292 C-725.56803909 523.24827606 -725.63951446 521.50645394 -725.70655823 519.76446533 C-725.87583643 515.79590259 -726.28355243 512.1272391 -727.07348633 508.23046875 C-727.20909316 505.67857892 -727.30448494 503.14697138 -727.35473633 500.59375 C-727.37314575 499.8730986 -727.39155518 499.1524472 -727.41052246 498.40995789 C-727.48885673 495.34205262 -727.55714565 492.27394699 -727.62573242 489.20581055 C-727.67740357 486.96001179 -727.73464053 484.71440336 -727.79223633 482.46875 C-727.80581177 481.77292313 -727.81938721 481.07709625 -727.83337402 480.36018372 C-727.88499833 476.67118069 -727.88499833 476.67118069 -729.07348633 473.23046875 C-729.21523212 471.5097917 -729.29958206 469.7842181 -729.35473633 468.05859375 C-729.41081055 466.47111328 -729.41081055 466.47111328 -729.46801758 464.8515625 C-729.50282227 463.73910156 -729.53762695 462.62664062 -729.57348633 461.48046875 C-729.82869491 453.6635245 -730.22152552 445.88186393 -730.8059082 438.08251953 C-731.11014851 433.70268045 -731.34976985 429.32206748 -731.57348633 424.9375 C-731.61469604 424.13140289 -731.65590576 423.32530579 -731.69836426 422.49478149 C-731.86698596 419.17215261 -732.03342593 415.84941897 -732.19848633 412.52661133 C-732.60960168 404.28744213 -733.0441495 396.07711637 -733.85473633 387.8659668 C-734.39738417 381.32815044 -734.48315826 374.75478639 -734.67895508 368.19921875 C-734.71633789 367.08546875 -734.7537207 365.97171875 -734.79223633 364.82421875 C-734.8225293 363.82068359 -734.85282227 362.81714844 -734.8840332 361.78320312 C-734.97758326 359.10960078 -734.97758326 359.10960078 -736.07348633 356.23046875 C-736.0937923 354.3971295 -736.06530447 352.56311565 -736.01098633 350.73046875 C-735.95896951 345.34152678 -736.36194074 340.17628563 -737.01098633 334.83203125 C-738.35261074 322.9516008 -738.72434452 311.04756534 -739.13598633 299.10546875 C-739.25236283 295.83047424 -739.37067911 292.55557838 -739.49278259 289.28079224 C-739.56761576 287.26519505 -739.63911211 285.24946995 -739.70655823 283.23361206 C-739.89037482 278.19253535 -740.24721664 273.22904532 -740.84934998 268.22091675 C-741.14763342 265.57200377 -741.26799604 262.93310403 -741.35473633 260.26953125 C-741.39211914 259.22023438 -741.42950195 258.1709375 -741.46801758 257.08984375 C-741.50282227 256.0225 -741.53762695 254.95515625 -741.57348633 253.85546875 C-741.77369627 247.76018816 -741.99238149 241.69855013 -742.60473633 235.62890625 C-742.9466667 232.13316739 -743.11389388 228.72269051 -743.07348633 225.2109375 C-742.99142888 216.97442094 -743.59065841 208.76157481 -744.07348633 200.54296875 C-744.17012637 198.85874034 -744.26648271 197.17449562 -744.36254883 195.49023438 C-744.59625976 191.40345064 -744.83380136 187.31690629 -745.07348633 183.23046875 C-745.40348633 183.23046875 -745.73348633 183.23046875 -746.07348633 183.23046875 C-747.06348633 162.77046875 -748.05348633 142.31046875 -749.07348633 121.23046875 C-749.40348633 121.23046875 -749.73348633 121.23046875 -750.07348633 121.23046875 C-753.28757436 62.83418514 -753.28757436 62.83418514 -753.07348633 46.23046875 C-749.45021893 45.02271295 -748.43202264 45.68735747 -745.07348633 47.23046875 C-745.07348633 47.89046875 -745.07348633 48.55046875 -745.07348633 49.23046875 C-744.22141602 49.33359375 -743.3693457 49.43671875 -742.49145508 49.54296875 C-738.75753315 50.29402048 -735.81066751 51.57580281 -732.38598633 53.23046875 C-727.81067716 55.43057697 -727.81067716 55.43057697 -723.07348633 57.23046875 C-723.07348633 57.89046875 -723.07348633 58.55046875 -723.07348633 59.23046875 C-722.49598633 59.37484375 -721.91848633 59.51921875 -721.32348633 59.66796875 C-719.24015299 60.18880208 -717.15681966 60.70963542 -715.07348633 61.23046875 C-715.07348633 61.89046875 -715.07348633 62.55046875 -715.07348633 63.23046875 C-714.43411133 63.31296875 -713.79473633 63.39546875 -713.13598633 63.48046875 C-708.86807115 64.52567247 -705.04240966 66.37138701 -701.07348633 68.23046875 C-701.07348633 68.89046875 -701.07348633 69.55046875 -701.07348633 70.23046875 C-700.22657227 70.32585937 -699.3796582 70.42125 -698.50708008 70.51953125 C-694.66993415 71.31402563 -691.56302154 72.78943678 -688.13598633 74.60546875 C-686.72818705 75.33017787 -685.3192607 76.05270031 -683.90942383 76.7734375 C-683.14339844 77.1657959 -682.37737305 77.5581543 -681.58813477 77.96240234 C-676.84735896 80.3530421 -672.05263462 82.63149596 -667.26098633 84.91796875 C-666.31940674 85.36897949 -665.37782715 85.81999023 -664.40771484 86.28466797 C-657.99772878 89.34473129 -651.54936913 92.31259069 -645.07348633 95.23046875 C-645.07348633 95.89046875 -645.07348633 96.55046875 -645.07348633 97.23046875 C-644.26911133 97.31296875 -643.46473633 97.39546875 -642.63598633 97.48046875 C-638.11414428 98.4324355 -634.22645932 100.24627054 -630.07348633 102.23046875 C-630.07348633 102.89046875 -630.07348633 103.55046875 -630.07348633 104.23046875 C-629.20079102 104.33875 -628.3280957 104.44703125 -627.42895508 104.55859375 C-623.96830725 105.25152906 -621.49480435 106.3348734 -618.38598633 107.98046875 C-612.69590615 110.92877062 -606.92778984 113.62599514 -601.07348633 116.23046875 C-601.07348633 116.89046875 -601.07348633 117.55046875 -601.07348633 118.23046875 C-599.74124023 118.40449219 -599.74124023 118.40449219 -598.38208008 118.58203125 C-595.1642476 119.21268083 -593.00993545 120.07328632 -590.13598633 121.60546875 C-583.81884757 124.87598742 -577.4285197 127.97412428 -571.01098633 131.04296875 C-569.98690674 131.53522949 -568.96282715 132.02749023 -567.90771484 132.53466797 C-566.94019287 132.99760254 -565.9726709 133.46053711 -564.97583008 133.9375 C-564.10434326 134.35491455 -563.23285645 134.7723291 -562.33496094 135.20239258 C-559.98647689 136.31765707 -559.98647689 136.31765707 -557.07348633 137.23046875 C-557.07348633 137.89046875 -557.07348633 138.55046875 -557.07348633 139.23046875 C-555.65036133 139.44703125 -555.65036133 139.44703125 -554.19848633 139.66796875 C-551.07348633 140.23046875 -551.07348633 140.23046875 -549.07348633 141.23046875 C-549.07348633 141.89046875 -549.07348633 142.55046875 -549.07348633 143.23046875 C-548.54754883 143.34519531 -548.02161133 143.45992187 -547.47973633 143.578125 C-544.42247937 144.40695927 -541.52792303 145.52617383 -538.57348633 146.66796875 C-537.44942383 147.09980469 -536.32536133 147.53164063 -535.16723633 147.9765625 C-532.72731988 148.96546803 -530.39977565 150.0046055 -528.07348633 151.23046875 C-528.07348633 151.89046875 -528.07348633 152.55046875 -528.07348633 153.23046875 C-527.20723633 153.44703125 -527.20723633 153.44703125 -526.32348633 153.66796875 C-523.19848633 154.44921875 -523.19848633 154.44921875 -520.07348633 155.23046875 C-520.07348633 155.89046875 -520.07348633 156.55046875 -520.07348633 157.23046875 C-519.41348633 157.31425781 -518.75348633 157.39804687 -518.07348633 157.484375 C-514.07942573 158.47768955 -510.70966636 160.27272731 -507.07348633 162.16796875 C-502.79201365 164.37584996 -498.57790045 166.50553425 -494.07348633 168.23046875 C-488.98049707 170.43893312 -483.91841396 172.6502632 -479.13598633 175.48046875 C-476.65090549 176.90051494 -474.86085084 177.78449043 -472.07348633 178.23046875 C-472.07348633 178.89046875 -472.07348633 179.55046875 -472.07348633 180.23046875 C-471.0003418 180.41416016 -471.0003418 180.41416016 -469.90551758 180.6015625 C-467.0223592 181.2418225 -464.4875616 182.16598431 -461.76098633 183.29296875 C-460.87797852 183.65519531 -459.9949707 184.01742187 -459.08520508 184.390625 C-458.42133789 184.66777344 -457.7574707 184.94492187 -457.07348633 185.23046875 C-457.07348633 185.89046875 -457.07348633 186.55046875 -457.07348633 187.23046875 C-456.18661133 187.33359375 -455.29973633 187.43671875 -454.38598633 187.54296875 C-451.07348633 188.23046875 -451.07348633 188.23046875 -448.94848633 189.51171875 C-445.04012575 191.84823866 -440.92972682 193.59846323 -436.76098633 195.41796875 C-435.9250293 195.78599609 -435.08907227 196.15402344 -434.2277832 196.53320312 C-432.1776357 197.43526802 -430.12619847 198.33425902 -428.07348633 199.23046875 C-428.07348633 199.89046875 -428.07348633 200.55046875 -428.07348633 201.23046875 C-427.18661133 201.33359375 -426.29973633 201.43671875 -425.38598633 201.54296875 C-421.93477299 202.25925831 -420.04294576 203.3942099 -417.07348633 205.23046875 C-415.44366898 206.05809489 -413.80245752 206.86359583 -412.15161133 207.6484375 C-411.21639648 208.09437256 -410.28118164 208.54030762 -409.31762695 208.99975586 C-408.32956055 209.46776611 -407.34149414 209.93577637 -406.32348633 210.41796875 C-405.30448242 210.90338135 -404.28547852 211.38879395 -403.2355957 211.88891602 C-398.50680129 214.13879931 -393.77225582 216.37571953 -389.02661133 218.58984375 C-387.8891748 219.12121948 -387.8891748 219.12121948 -386.72875977 219.66333008 C-385.3427764 220.30937919 -383.95550507 220.95267617 -382.56665039 221.5925293 C-379.44847883 223.04380169 -376.43100568 224.57647821 -373.47192383 226.32421875 C-369.53230688 228.53402688 -365.61743464 229.84253966 -361.33129883 231.203125 C-360.5862207 231.54214844 -359.84114258 231.88117188 -359.07348633 232.23046875 C-358.74348633 233.22046875 -358.41348633 234.21046875 -358.07348633 235.23046875 C-355.76348633 235.56046875 -353.45348633 235.89046875 -351.07348633 236.23046875 C-350.74348633 237.22046875 -350.41348633 238.21046875 -350.07348633 239.23046875 C-348.83211914 239.36775391 -348.83211914 239.36775391 -347.56567383 239.5078125 C-343.40544084 240.36871082 -339.99418076 241.93557952 -336.19848633 243.79296875 C-335.51012695 244.12232422 -334.82176758 244.45167969 -334.11254883 244.79101562 C-332.42961303 245.59742236 -330.7510834 246.41301369 -329.07348633 247.23046875 C-329.07348633 247.89046875 -329.07348633 248.55046875 -329.07348633 249.23046875 C-328.20852539 249.33488281 -327.34356445 249.43929687 -326.45239258 249.546875 C-322.86649582 250.27234544 -320.23824641 251.46480827 -317.01098633 253.16796875 C-312.88686064 255.33303561 -312.88686064 255.33303561 -308.62817383 257.20703125 C-305.39785288 258.50113536 -302.3572787 260.08056417 -299.26098633 261.66796875 C-294.29072026 264.19220695 -289.35417556 266.43503441 -284.07348633 268.23046875 C-284.07348633 268.89046875 -284.07348633 269.55046875 -284.07348633 270.23046875 C-283.28973633 270.37484375 -282.50598633 270.51921875 -281.69848633 270.66796875 C-279.07348633 271.23046875 -279.07348633 271.23046875 -277.07348633 272.23046875 C-277.07348633 272.89046875 -277.07348633 273.55046875 -277.07348633 274.23046875 C-276.20336914 274.34390625 -275.33325195 274.45734375 -274.43676758 274.57421875 C-264.81493237 276.45165001 -255.64401306 282.42148717 -247.07421875 287.0703125 C-242.81556129 289.36884433 -238.53800398 291.36348864 -234.07348633 293.23046875 C-232.83678125 293.8404165 -231.60598867 294.46276355 -230.38598633 295.10546875 C-225.08849998 297.80123104 -219.5760408 299.99276326 -214.07348633 302.23046875 C-214.07348633 302.89046875 -214.07348633 303.55046875 -214.07348633 304.23046875 C-213.16598633 304.33359375 -212.25848633 304.43671875 -211.32348633 304.54296875 C-208.07348633 305.23046875 -208.07348633 305.23046875 -206.19848633 306.65234375 C-203.80404363 308.43056958 -201.6474082 309.22800618 -198.82348633 310.16796875 C-193.99851441 311.8453751 -189.58723154 313.84584864 -185.07348633 316.23046875 C-185.07348633 316.89046875 -185.07348633 317.55046875 -185.07348633 318.23046875 C-184.12473633 318.37484375 -183.17598633 318.51921875 -182.19848633 318.66796875 C-179.07348633 319.23046875 -179.07348633 319.23046875 -177.07348633 320.23046875 C-177.07348633 320.89046875 -177.07348633 321.55046875 -177.07348633 322.23046875 C-176.20594727 322.33617187 -175.3384082 322.441875 -174.44458008 322.55078125 C-170.90067126 323.26531211 -168.32368576 324.42155919 -165.13598633 326.10546875 C-160.29591353 328.62171712 -160.29591353 328.62171712 -155.32348633 330.85546875 C-152.08872982 332.22401958 -148.98971039 333.75369713 -145.87036133 335.36328125 C-143.91429296 336.35438829 -143.91429296 336.35438829 -141.07348633 337.23046875 C-141.07348633 337.89046875 -141.07348633 338.55046875 -141.07348633 339.23046875 C-140.31036133 339.37484375 -139.54723633 339.51921875 -138.76098633 339.66796875 C-136.07348633 340.23046875 -136.07348633 340.23046875 -133.07348633 341.23046875 C-133.07348633 341.89046875 -133.07348633 342.55046875 -133.07348633 343.23046875 C-132.02741211 343.39289063 -132.02741211 343.39289063 -130.96020508 343.55859375 C-127.67643487 344.32288127 -124.9337828 345.54009721 -121.88598633 346.98046875 C-120.17282227 347.78871094 -120.17282227 347.78871094 -118.42504883 348.61328125 C-113.22618209 351.12182534 -108.06904319 353.70545798 -102.92504883 356.32421875 C-102.2521582 356.66453125 -101.57926758 357.00484375 -100.88598633 357.35546875 C-100.0294043 357.79246094 -100.0294043 357.79246094 -99.15551758 358.23828125 C-97.37533031 359.08662565 -95.56467131 359.87051836 -93.74926758 360.640625 C-90.23934804 362.13270171 -86.84759885 363.81157069 -83.44848633 365.54296875 C-77.72309249 368.43950733 -71.93463513 371.16369745 -66.09692383 373.828125 C-62.54815297 375.47413112 -59.06274625 377.22850813 -55.57348633 378.99609375 C-51.12760658 381.19124688 -46.60001762 383.20815914 -42.07348633 385.23046875 C-42.07348633 385.89046875 -42.07348633 386.55046875 -42.07348633 387.23046875 C-40.81536133 387.33359375 -39.55723633 387.43671875 -38.26098633 387.54296875 C-34.66255302 387.8379223 -33.54048549 388.6814466 -31.07348633 391.23046875 C-28.88883795 392.30686226 -28.88883795 392.30686226 -26.44848633 393.16796875 C-21.57503275 395.02418121 -16.82094501 397.07461795 -12.07348633 399.23046875 C-12.07348633 399.89046875 -12.07348633 400.55046875 -12.07348633 401.23046875 C-11.08348633 401.23046875 -10.09348633 401.23046875 -9.07348633 401.23046875 C-9.17816019 366.58803681 -9.28795267 331.94562525 -9.40460327 297.3032316 C-9.41837273 293.21273395 -9.43209984 289.12223616 -9.44580078 285.03173828 C-9.44989324 283.81022926 -9.44989324 283.81022926 -9.45406837 282.56404328 C-9.49813501 269.38097484 -9.53877156 256.19789795 -9.57813894 243.01481473 C-9.61861439 229.48625472 -9.66277955 215.95771037 -9.71036488 202.42917347 C-9.73960781 194.08237047 -9.76597794 185.73556857 -9.7886653 177.38874513 C-9.80450181 171.66385887 -9.82392452 165.93899174 -9.84615474 160.21412677 C-9.85887191 156.91195114 -9.86948804 153.60979238 -9.87690544 150.30760002 C-9.88520391 146.72391425 -9.89949109 143.14030016 -9.91526794 139.55664062 C-9.9167351 137.9982514 -9.9167351 137.9982514 -9.9182319 136.40837955 C-9.94933319 130.91527572 -10.3261842 125.67003761 -11.07348633 120.23046875 C-11.15770397 118.42238549 -11.20766894 116.61218727 -11.21392822 114.80215454 C-11.22249344 113.30068878 -11.22249344 113.30068878 -11.23123169 111.76889038 C-11.23234955 110.69740753 -11.23346741 109.62592468 -11.23461914 108.52197266 C-11.23958405 107.3730957 -11.24454895 106.22421875 -11.24966431 105.04052734 C-11.26420137 101.26268913 -11.27107021 97.48489276 -11.27661133 93.70703125 C-11.28236531 91.07766723 -11.28812302 88.44830321 -11.29388428 85.81893921 C-11.30342812 81.02115628 -11.30934335 76.22338235 -11.31238103 71.42559111 C-11.3168775 64.36436438 -11.33451521 57.3033297 -11.36338162 50.24216139 C-11.38755372 44.11682674 -11.39532247 37.99157189 -11.39705658 31.86619186 C-11.40009206 29.26095909 -11.40815046 26.65572731 -11.42124176 24.05052567 C-11.43819341 20.421065 -11.43644979 16.79208123 -11.42993164 13.16259766 C-11.44375381 11.5371553 -11.44375381 11.5371553 -11.45785522 9.87887573 C-11.45228607 8.8948175 -11.44671692 7.91075928 -11.440979 6.8968811 C-11.44244556 6.03894266 -11.44391212 5.18100422 -11.44542313 4.29706764 C-11.32268398 3.61509001 -11.19994484 2.93311237 -11.07348633 2.23046875 C-7.30513303 -0.28176678 -4.36178254 -0.03981136 0 0 Z " fill="#ffffff" transform="translate(763.073486328125,116.76953125)"/>
</svg>
