<?xml version="1.0" encoding="UTF-8"?>
<svg version="1.1" xmlns="http://www.w3.org/2000/svg" width="1920" height="1920">
<path d="M0 0 C0 431.64 0 863.28 0 1308 C-224.68194574 1308 -224.68194574 1308 -253 1292 C-253.58652344 1291.6709668 -254.17304687 1291.34193359 -254.77734375 1291.00292969 C-267.09303542 1284.00030001 -277.36145418 1274.97099259 -287.27197266 1264.93383789 C-288.75756468 1263.42984161 -290.25115205 1261.93415095 -291.74609375 1260.43945312 C-296.46618074 1255.70149737 -301.04643842 1250.89490515 -305.39941406 1245.81665039 C-308.11875477 1242.73022358 -311.061933 1239.87623008 -314 1237 C-318.23406016 1232.81461991 -322.31832043 1228.60320477 -326.1640625 1224.0546875 C-329.16289134 1220.6985514 -332.39934703 1217.58111793 -335.6003418 1214.41918945 C-338.32444549 1211.71555171 -340.95357706 1208.99241409 -343.4375 1206.0625 C-346.6000996 1202.34042332 -350.02970414 1198.9313366 -353.5 1195.5 C-357.55464806 1191.49087142 -361.43978149 1187.44135501 -365.12890625 1183.08984375 C-368.1408176 1179.72580915 -371.38423089 1176.59599226 -374.59570312 1173.42382812 C-377.9507723 1170.09401668 -381.09733029 1166.6605969 -384.16015625 1163.05859375 C-386.50495064 1160.43501277 -388.99630568 1157.97009896 -391.5 1155.5 C-394.59491133 1152.44661717 -397.61934257 1149.37676339 -400.4375 1146.0625 C-403.45352849 1142.52320874 -406.69448224 1139.26505855 -410 1136 C-413.26382932 1132.77602207 -416.46830164 1129.56482126 -419.4375 1126.0625 C-422.60009982 1122.34042307 -426.02970696 1118.93133928 -429.5 1115.5 C-433.53298474 1111.51223443 -437.39402465 1107.48505092 -441.0625 1103.15625 C-444.3036655 1099.54914646 -447.79262379 1096.18821105 -451.23999023 1092.77954102 C-454.70386446 1089.33963479 -457.97124934 1085.8144615 -461.12890625 1082.08984375 C-464.1408176 1078.72580915 -467.38423089 1075.59599226 -470.59570312 1072.42382812 C-473.944245 1069.10049484 -477.08695121 1065.67601788 -480.140625 1062.078125 C-483.46914259 1058.35801711 -487.07696751 1054.90680005 -490.64453125 1051.41796875 C-493 1049 -493 1049 -495 1046 C-497.57440546 1045.54127105 -497.57440546 1045.54127105 -500.641922 1045.61473083 C-501.84278946 1045.60508301 -503.04365692 1045.59543518 -504.28091431 1045.585495 C-505.6193246 1045.58985956 -506.95773404 1045.59449208 -508.29614258 1045.59936523 C-509.70077602 1045.59362459 -511.10540453 1045.58654259 -512.51002502 1045.57821655 C-515.54279458 1045.56306673 -518.57538769 1045.55733249 -521.60819435 1045.55874443 C-526.42392841 1045.56077962 -531.23942705 1045.54119178 -536.05509949 1045.51856995 C-545.4384365 1045.47751132 -554.82175547 1045.45900834 -564.20516205 1045.44239807 C-576.07904585 1045.42009213 -587.95287443 1045.38596761 -599.82667083 1045.33519894 C-603.81852903 1045.31871266 -607.8103006 1045.30659632 -611.8021946 1045.30496025 C-656.98865329 1045.28585972 -656.98865329 1045.28585972 -679 1039 C-679.97791504 1038.72349609 -679.97791504 1038.72349609 -680.97558594 1038.44140625 C-706.6891311 1030.98820475 -729.87269528 1013.20044318 -746 992 C-746.4223291 991.45601562 -746.8446582 990.91203125 -747.27978516 990.3515625 C-767.90071876 963.35342891 -772.32559486 930.80557418 -772.26069641 897.90020752 C-772.26372258 895.70610702 -772.26761438 893.51200757 -772.27228898 891.31790996 C-772.28251775 885.33120613 -772.28040028 879.34456254 -772.27610838 873.35785389 C-772.27363181 866.88460975 -772.28266685 860.41137976 -772.29014587 853.93814087 C-772.30328969 841.27269327 -772.30469528 828.60726465 -772.30234561 815.94181159 C-772.30050852 805.64252813 -772.30228127 795.34325088 -772.30657005 785.0439682 C-772.30717247 783.56101298 -772.30777367 782.07805776 -772.30837366 780.59510253 C-772.30928097 778.36006261 -772.31018964 776.12502269 -772.31110601 773.88998277 C-772.31952801 753.12640897 -772.32387644 732.3628375 -772.31969929 711.59926224 C-772.31954291 710.81753244 -772.31938654 710.03580264 -772.31922542 709.23038406 C-772.31841971 705.2688311 -772.31757394 701.30727815 -772.31671212 697.34572521 C-772.31654103 696.55903623 -772.31636994 695.77234725 -772.31619367 694.96181921 C-772.31584701 693.37094554 -772.31549848 691.78007188 -772.31514808 690.18919822 C-772.3097922 665.44122222 -772.31772061 640.69328186 -772.33618164 615.9453125 C-772.356929 588.10020198 -772.36761916 560.25511352 -772.36360615 532.40999484 C-772.36321085 529.43709485 -772.36284929 526.46419486 -772.36250877 523.49129486 C-772.36241804 522.75936519 -772.36232731 522.02743553 -772.36223383 521.27332618 C-772.3610712 510.25719235 -772.36769056 499.24108093 -772.37832069 488.2249527 C-772.390408 475.6864431 -772.3916146 463.14798613 -772.37953053 450.60947564 C-772.37365739 444.21903094 -772.37249904 437.82868208 -772.38453293 431.43824387 C-772.3954441 425.57562237 -772.39222652 419.71317614 -772.37827124 413.85056266 C-772.37563867 411.74236665 -772.37794495 409.63415666 -772.38600711 407.52597442 C-772.51833739 370.30631761 -764.26200464 334.77852077 -737.97265625 307.11328125 C-735.93543882 304.99548426 -735.93543882 304.99548426 -734.0625 302.5 C-715.7225207 280.26972206 -683.97667804 267.26892589 -656 264 C-645.5478891 263.13672385 -635.18412376 262.88415766 -624.69628906 263.00097656 C-623.24544276 263.01272285 -621.79459088 263.02379475 -620.34373474 263.03425598 C-618.04409814 263.05090695 -615.74447241 263.06796274 -613.44485426 263.08700705 C-607.76277305 263.1336747 -602.08087508 263.15859691 -596.39862061 263.17108154 C-595.56730283 263.17291608 -594.73598505 263.17475062 -593.87947583 263.17664075 C-590.46203501 263.18371718 -587.04459341 263.19001716 -583.62715006 263.19573832 C-573.97955282 263.21256685 -564.33313961 263.25075903 -554.68603516 263.35302734 C-546.97847043 263.43459446 -539.27224307 263.46988603 -531.56424689 263.45151305 C-527.4995998 263.44351822 -523.43800679 263.45809423 -519.373909 263.5291214 C-500.73845574 264.7986024 -500.73845574 264.7986024 -484.7077446 257.49186325 C-482.48099376 254.81119762 -480.77909303 251.99956547 -479 249 C-477.37948925 247.28842165 -475.72076285 245.61075472 -474 244 C-472.94935586 242.89133821 -471.9054387 241.77622747 -470.87109375 240.65234375 C-470.31695801 240.05317139 -469.76282227 239.45399902 -469.19189453 238.83666992 C-468.61294434 238.20994385 -468.03399414 237.58321777 -467.4375 236.9375 C-462.93433948 232.07682304 -458.35862485 227.32363427 -453.625 222.6875 C-450.29304274 219.41551048 -447.19613739 216.10474695 -444.375 212.375 C-439.676732 206.25632539 -434.11029266 200.98126314 -428.60888672 195.59521484 C-424.4030883 191.46544118 -420.37680499 187.27240142 -416.55883789 182.77978516 C-414.94433307 180.93644292 -413.24985201 179.2146339 -411.5 177.5 C-409.04551512 175.08934521 -406.7455794 172.60647609 -404.5 170 C-401.74656316 166.80404653 -398.85322821 163.82769937 -395.84350586 160.87475586 C-394.06663359 159.06776312 -392.40563127 157.20655066 -390.75390625 155.28515625 C-387.08596377 151.06707083 -383.28336238 146.99310202 -379.4375 142.9375 C-378.02448973 141.44164222 -376.61173415 139.94554383 -375.19921875 138.44921875 C-374.49587402 137.70462402 -373.7925293 136.9600293 -373.06787109 136.19287109 C-365.16766658 127.81510994 -357.33502044 119.37426075 -349.53149414 110.90649414 C-342.11927217 102.86854131 -334.64934098 94.88397206 -327.1640625 86.9140625 C-321.60064555 80.98998849 -316.04072488 75.06558475 -310.5625 69.0625 C-305.38346853 63.38875508 -300.12054317 57.79661854 -294.83666992 52.22045898 C-291.9236585 49.13966254 -289.0201537 46.06261422 -286.24609375 42.85546875 C-277.0788299 32.29876788 -266.04384564 24.04605935 -254 17 C-252.91847656 16.34257812 -251.83695313 15.68515625 -250.72265625 15.0078125 C-243.6831195 10.88021264 -236.58764195 7.96446636 -228.75 5.6875 C-227.5746167 5.34223267 -227.5746167 5.34223267 -226.37548828 4.98999023 C-153.53264627 -14.7754257 -75.47682624 0 0 0 Z " fill="#FFFFFF" transform="translate(832,306)"/>
<path d="M0 0 C1.03229736 0.24943359 1.03229736 0.24943359 2.08544922 0.50390625 C25.37980853 6.27274552 45.97326648 18.17596569 63 35 C63.763125 35.6909375 64.52625 36.381875 65.3125 37.09375 C75.81495939 46.84603372 83.57331778 59.84550718 91 72 C91.52078125 72.84949219 92.0415625 73.69898438 92.578125 74.57421875 C95.32482897 79.10350586 97.94594342 83.68403202 100.4921875 88.328125 C102.00175587 91.00311143 103.57399965 93.63610713 105.15380859 96.27001953 C110.91313101 105.90266474 116.22301696 115.75758101 121.47021484 125.67504883 C124.40306286 131.20651828 127.3847468 136.68109911 130.55859375 142.078125 C136.71021192 152.66939496 142.03244716 163.72787516 147.49926758 174.68286133 C148.78506501 177.25907379 150.07541845 179.8329135 151.37036133 182.40454102 C158.37510433 196.31600593 165.20627755 210.24034969 171.16479492 224.64160156 C172.92781727 228.89379227 174.87043717 233.04465775 176.875 237.1875 C185.3804053 255.04127393 192.65892329 273.42827502 199.72509766 291.88891602 C200.22423321 293.19289048 200.72341858 294.49684588 201.22265625 295.80078125 C201.46391235 296.43097672 201.70516846 297.06117218 201.95373535 297.71046448 C203.63307961 302.08254915 205.38427047 306.42023385 207.17211914 310.7487793 C211.50353346 321.26602591 215.08959272 331.99449026 218.6325531 342.79962158 C218.84533401 343.44840271 219.05811493 344.09718384 219.27734375 344.765625 C219.49330704 345.42423523 219.70927032 346.08284546 219.93177795 346.76141357 C221.62064108 351.89264971 223.36403589 357.00382597 225.12890625 362.109375 C225.39393951 362.87684555 225.65897278 363.6443161 225.93203735 364.43504333 C226.97370931 367.44896578 228.01615879 370.46258929 229.06604004 373.47366333 C231.79030658 381.28880974 234.39891985 389.11976877 236.7421875 397.05859375 C236.94358841 397.74004959 237.14498932 398.42150543 237.35249329 399.12361145 C238.66184459 403.63596272 239.77434516 408.16757717 240.8125 412.75 C242.24704142 419.07556844 243.90631326 425.3098454 245.67529297 431.55053711 C250.95246451 450.18610598 255.38344482 468.9842152 259.53839111 487.89880371 C259.94617878 489.75501134 260.35735372 491.61047412 260.76904297 493.46582031 C279.42501806 578.86385473 282.8339707 668.98769169 267.54199219 789.38232422 C267.0852189 792.43118301 266.64759731 795.48121201 266.2265625 798.53515625 C265.55459531 803.36911107 264.8043555 808.1863376 264 813 C263.83516113 813.98935547 263.67032227 814.97871094 263.50048828 815.99804688 C260.33451268 834.50172259 255.99303902 852.67077028 251.4375 870.875 C251.15827698 871.99302002 250.87905396 873.11104004 250.59136963 874.26293945 C247.83240028 885.27456039 245.01693652 896.24995336 241.72842407 907.11650085 C240.36317984 911.65569336 239.18506889 916.21496193 238.08203125 920.82421875 C235.99702297 929.44007735 233.29682257 937.83583598 230.52856445 946.25317383 C229.69244975 948.79743811 228.86610843 951.34472096 228.04101562 953.89257812 C225.0214156 963.16463673 221.81551326 972.34485593 218.40496826 981.48028564 C216.55653562 986.44280457 214.84023452 991.42483641 213.2512207 996.47729492 C208.54907845 1011.41608409 202.47363025 1025.75909509 196.41001892 1040.18101501 C194.68746043 1044.29624755 193.0464948 1048.43341207 191.46484375 1052.60546875 C188.76668135 1059.70177283 185.78042516 1066.66617175 182.75 1073.625 C182.46686951 1074.27752747 182.18373901 1074.93005493 181.89202881 1075.60235596 C178.1324172 1084.2614235 174.29656912 1092.87695632 170.15527344 1101.36181641 C168.01324631 1105.76680911 166.05320199 1110.22231929 164.13671875 1114.73046875 C159.10791742 1126.39190195 153.31740484 1137.70303886 147.63110352 1149.0534668 C146.33613675 1151.63876616 145.04584036 1154.22630673 143.76000977 1156.81616211 C137.23181774 1169.96422519 130.66654323 1183.02345492 123.04956055 1195.5847168 C120.33951892 1200.10059201 117.93364777 1204.73790623 115.5625 1209.4375 C111.66855904 1217.01261732 107.49251597 1224.32272824 102.98022461 1231.54492188 C100.0348914 1236.26584776 97.2856575 1241.05160961 94.625 1245.9375 C81.1317107 1270.44861338 63.45054749 1293.75802899 39 1308 C38.33242676 1308.39413086 37.66485352 1308.78826172 36.97705078 1309.19433594 C6.94043192 1326.69263551 -29.50770307 1332.247664 -63.29882812 1323.39794922 C-74.5088666 1320.23535383 -84.78991343 1315.54703838 -95 1310 C-96.093125 1309.4225 -97.18625 1308.845 -98.3125 1308.25 C-105.44270963 1304.32110898 -111.12002853 1299.59144495 -117 1294 C-118.38955631 1292.78445346 -119.78500772 1291.575598 -121.1875 1290.375 C-122.46164515 1289.25375226 -123.73263875 1288.12891002 -125 1287 C-125.57234375 1286.4946875 -126.1446875 1285.989375 -126.734375 1285.46875 C-147.99730443 1265.5713298 -160.7971906 1231.96653234 -162.12451172 1203.31201172 C-162.48606743 1190.23537253 -162.13104842 1177.72758855 -159 1165 C-158.83371094 1164.30358398 -158.66742187 1163.60716797 -158.49609375 1162.88964844 C-155.77057899 1151.79074668 -151.47249084 1141.99930341 -146 1132 C-145.65984863 1131.36803711 -145.31969727 1130.73607422 -144.96923828 1130.08496094 C-140.44645839 1121.70116657 -135.54101431 1113.58103751 -130.5 1105.5 C-121.51914936 1091.09517304 -113.48900194 1076.25186099 -105.51489258 1061.27172852 C-102.53984245 1055.6894626 -99.5420611 1050.13146858 -96.35620117 1044.66625977 C-90.92766108 1035.34948815 -86.55471041 1025.57730057 -82.1015625 1015.765625 C-79.66640332 1010.41285505 -77.13039659 1005.11875464 -74.54321289 999.83813477 C-67.87008348 986.20250529 -61.9567919 972.31095051 -56.18327332 958.27839661 C-54.72397647 954.7351587 -53.24020209 951.20447984 -51.71875 947.6875 C-46.64304569 935.94755894 -42.31218545 923.98845986 -38.04638672 911.93310547 C-36.83869483 908.54784872 -35.59422174 905.17759363 -34.33813477 901.81005859 C-27.06690642 882.31139032 -20.36987383 862.74985454 -14.98486328 842.64208984 C-14.08062677 839.29816314 -13.15561959 835.96100512 -12.22233582 832.62512207 C10.53786849 751.23286123 18.6714092 668.24727194 7 582 C6.8979425 581.24527405 6.79588501 580.4905481 6.69073486 579.71295166 C2.30262959 547.47545804 -5.07229759 516.25266021 -14.13623047 485.02099609 C-15.03677567 481.87137871 -15.89844488 478.7129247 -16.75390625 475.55078125 C-24.42340461 447.48970373 -34.51355946 420.1186861 -45 393 C-45.31179199 392.19030762 -45.62358398 391.38061523 -45.94482422 390.54638672 C-51.48843374 376.21833322 -57.63065166 362.14656642 -63.78730774 348.07434082 C-65.19875634 344.84588923 -66.59687935 341.61265005 -67.96875 338.3671875 C-71.81231596 329.31134884 -76.1655083 320.5489632 -80.60009766 311.76977539 C-83.30848818 306.40512768 -85.95033053 301.03303235 -88.4375 295.5625 C-97.02201593 276.93493389 -107.05421313 258.92775596 -117 241 C-117.37463379 240.32404785 -117.74926758 239.6480957 -118.13525391 238.95166016 C-121.80842409 232.35167488 -125.66179799 225.88856213 -129.6875 219.5 C-142.7698598 198.69660861 -154.36257653 179.08134922 -160 155 C-160.2475 153.94941406 -160.495 152.89882813 -160.75 151.81640625 C-166.45952212 121.96036352 -159.70298741 90.2311159 -145 64 C-144.50959229 63.09241943 -144.50959229 63.09241943 -144.00927734 62.16650391 C-138.56695915 52.13166472 -132.11640493 43.99789961 -124 36 C-123.16178711 35.16009521 -123.16178711 35.16009521 -122.30664062 34.30322266 C-114.53887744 26.56837373 -106.70859622 20.23371451 -97 15 C-96.38930664 14.66661621 -95.77861328 14.33323242 -95.14941406 13.98974609 C-80.8558765 6.254975 -66.04217363 0.76657833 -50 -2 C-48.453125 -2.27650391 -48.453125 -2.27650391 -46.875 -2.55859375 C-31.33633124 -4.32862356 -15.18525294 -3.80473908 0 0 Z " fill="#FFFFFF" transform="translate(1582,298)"/>
<path d="M0 0 C0.7007666 0.18191895 1.4015332 0.36383789 2.12353516 0.55126953 C37.77579345 9.9009009 64.54530778 35.09205452 82.8125 66.25 C84.41732512 69.02968535 86.0140941 71.81380895 87.60742188 74.60009766 C89.3484166 77.60044445 91.19396543 80.51501927 93.0625 83.4375 C97.18101553 90.06856903 100.7154067 96.98746352 104.28833008 103.92407227 C107.83470443 110.8036266 111.5052382 117.6017364 115.25 124.375 C119.79158734 132.63724001 123.98684117 140.97726849 127.88378906 149.56005859 C129.17291951 152.37798723 130.48806563 155.1830939 131.8046875 157.98828125 C141.37397246 178.43469452 150.08680079 199.14775458 157.98486328 220.29443359 C159.05036466 223.13423307 160.13137854 225.96779001 161.21484375 228.80078125 C183.3297826 286.8210892 199.76444404 348.86542873 203.79541016 410.97753906 C203.93347701 413.01723788 204.08984206 415.05576916 204.26318359 417.09277344 C205.31224313 430.2502778 205.2409265 443.4334981 205.25 456.625 C205.25167175 457.90680145 205.25334351 459.18860291 205.25506592 460.50924683 C205.25672684 481.81308849 204.39156534 502.83311966 202 524 C201.92079315 524.70733276 201.8415863 525.41466553 201.75997925 526.14343262 C198.19194141 557.86185614 191.61516472 588.72445036 182.99511719 619.43505859 C182.29191459 621.95423533 181.59648619 624.47453004 180.91113281 626.99853516 C173.31838588 654.95034804 163.90189025 681.97805365 152.90039062 708.77539062 C152.00731483 710.98192714 151.14745153 713.19864393 150.296875 715.421875 C143.93118596 731.9455034 136.39292414 747.95921483 128.92694092 764.00683594 C128.07999104 765.82799847 127.23542738 767.65027024 126.39111328 769.47265625 C120.66038486 781.81041849 114.50491326 793.82904514 107.90234375 805.72265625 C105.59467046 809.8868158 103.38604026 814.09220521 101.21313477 818.32788086 C96.15854108 828.15936566 90.46102396 837.45238542 84.45507812 846.72753906 C83.0413854 848.93536656 81.66264532 851.16070631 80.296875 853.3984375 C75.64098852 861.0254161 70.86341517 868.22295604 65 875 C64.31550781 875.81726562 63.63101562 876.63453125 62.92578125 877.4765625 C41.83141228 901.94148594 11.80451819 916.18857764 -20 920 C-25.00344683 920.31215431 -29.98758013 920.38183611 -35 920.375 C-35.67775482 920.37445618 -36.35550964 920.37391235 -37.05380249 920.37335205 C-48.74268358 920.33043187 -59.7315547 919.21326761 -71 916 C-71.77085938 915.78569336 -72.54171875 915.57138672 -73.3359375 915.35058594 C-106.67097302 905.84013353 -134.75779288 881.88027053 -152 852 C-168.18071163 819.9218277 -172.33698682 782.14124498 -161.046875 747.8515625 C-155.18582511 731.07361756 -146.83538617 716.80667824 -137.3059082 701.92456055 C-133.38957862 695.75689018 -130.08991374 689.50003695 -126.93652344 682.90625 C-124.67580812 678.30466886 -122.22407551 673.79797625 -119.81396484 669.2734375 C-113.62660111 657.60511131 -107.8905879 645.82810447 -102.6875 633.6875 C-102.40898193 633.03882965 -102.13046387 632.3901593 -101.84350586 631.72183228 C-100.14240598 627.75551318 -98.45307256 623.78432027 -96.76947021 619.81054688 C-96.0655246 618.15417797 -95.35464827 616.50075898 -94.64306641 614.84765625 C-53.33457187 518.5634844 -51.43519519 424.92192678 -89.88391113 312.73413086 C-93.31884391 304.15397141 -96.99835267 295.67797692 -100.7228241 287.22032166 C-102.55220477 283.05922515 -104.28534737 278.87113501 -105.95336914 274.64331055 C-109.55425457 265.52025818 -114.06323152 256.95349004 -118.73583984 248.33886719 C-120.36185814 245.33051353 -121.95732932 242.30657241 -123.55102539 239.28100586 C-124.67028716 237.15765448 -125.79524104 235.03741619 -126.921875 232.91796875 C-128.21328275 230.48802099 -129.49346239 228.05346927 -130.765625 225.61328125 C-133.92934307 219.6036953 -137.31499497 213.80234623 -140.9375 208.0625 C-142.22275173 206.01474936 -143.50756185 203.96672297 -144.79199219 201.91845703 C-145.88732237 200.17894519 -146.99381356 198.4464736 -148.1015625 196.71484375 C-165.99661551 167.37693812 -171.63890864 131.95849225 -164.22265625 98.4921875 C-160.38606638 82.98116751 -155.22753361 68.1427675 -146 55 C-145.30003906 53.99710938 -144.60007812 52.99421875 -143.87890625 51.9609375 C-124.56994762 25.32076998 -98.86095813 7.08865802 -67 -1 C-65.83082031 -1.32097656 -64.66164063 -1.64195312 -63.45703125 -1.97265625 C-43.21280634 -6.7191212 -19.93574324 -5.5077865 0 0 Z " fill="#FFFFFF" transform="translate(1141,502)"/>
</svg>
